<?xml version="1.0" encoding="UTF-8"?>
<svg version="1.1" xmlns="http://www.w3.org/2000/svg" width="1024" height="1024">
<path d="M0 0 C337.92 0 675.84 0 1024 0 C1024 337.92 1024 675.84 1024 1024 C686.08 1024 348.16 1024 0 1024 C0 686.08 0 348.16 0 0 Z " fill="#FDFEFE" transform="translate(0,0)"/>
<path d="M0 0 C11.06360536 5.57508752 15.45990766 19.50464555 19.19140625 30.515625 C24.62849354 48.41186803 25.12428009 66.52927464 23 85 C23.56170898 85.11480713 24.12341797 85.22961426 24.70214844 85.34790039 C51.00163395 90.80784429 81.15317235 98.27637201 98 121 C106.59334933 134.61440564 108.6176819 149.56938808 108.45410156 165.3203125 C108.45296945 166.87930268 108.45361402 168.43829498 108.45587158 169.99728394 C108.45700548 174.17408277 108.43371463 178.35040925 108.40557575 182.52709961 C108.38033763 186.9125724 108.37820263 191.29805953 108.37347412 195.68359375 C108.36110949 203.96341695 108.3283774 212.24302543 108.28807616 220.52275467 C108.24315402 229.95943324 108.22132034 239.39612281 108.20129442 248.83288193 C108.15963791 268.22204239 108.0894145 287.61100385 108 307 C105.90838815 307.10543338 103.81525265 307.18095649 101.72192383 307.24365234 C100.55655594 307.28888031 99.39118805 307.33410828 98.19050598 307.38070679 C95 307 95 307 92.89199829 305.19813538 C91.21746651 302.76479209 89.95181748 300.29487036 88.6875 297.625 C87.61075959 295.59293352 86.52984907 293.56307254 85.4453125 291.53515625 C84.61241699 289.92858154 84.61241699 289.92858154 83.76269531 288.28955078 C80.78146348 282.72596107 77.41040053 277.41056471 74.0625 272.0625 C72.70166136 269.862884 71.3422826 267.66236414 69.984375 265.4609375 C69.31857422 264.38295898 68.65277344 263.30498047 67.96679688 262.19433594 C64.89458785 257.20466576 61.85317734 252.19642544 58.8125 247.1875 C53.93078523 239.15162575 49.00926028 231.14181612 44.05200195 223.15234375 C38.83441148 214.74204141 33.64907299 206.31202438 28.46728516 197.87963867 C27.50894775 196.32079956 27.50894775 196.32079956 26.53125 194.73046875 C25.92796875 193.74739746 25.3246875 192.76432617 24.703125 191.75146484 C23.16899328 189.27301524 21.60370301 186.81747846 20.03125 184.36328125 C18 181 18 181 18 179 C17.34 179 16.68 179 16 179 C15.89727552 184.30814501 15.94560946 189.60230742 16.2734375 194.90234375 C16.32419434 195.77882568 16.37495117 196.65530762 16.42724609 197.55834961 C17.32985759 201.40618321 19.52061242 203.43426296 22.8046875 205.48828125 C30.59462427 210.85252596 35.01763874 223.00857571 37 232 C38.59271465 249.57227961 36.25421429 265.86282759 25 280 C13.44466582 293.64093109 -2.99544679 303.18078994 -21 305 C-24.5222575 305.13161019 -28.03813882 305.13988119 -31.5625 305.125 C-32.48224609 305.12886719 -33.40199219 305.13273437 -34.34960938 305.13671875 C-35.24615234 305.13542969 -36.14269531 305.13414062 -37.06640625 305.1328125 C-37.87021729 305.13168457 -38.67402832 305.13055664 -39.50219727 305.12939453 C-42.38837499 304.97988088 -45.15909517 304.51896438 -48 304 C-47.99111755 304.67492493 -47.98223511 305.34984985 -47.9730835 306.04522705 C-47.88405841 313.11893173 -47.82403814 320.19247525 -47.78027344 327.26660156 C-47.76025392 329.90078199 -47.73302998 332.53491852 -47.69824219 335.16894531 C-47.64929904 338.97211594 -47.62693343 342.77469506 -47.609375 346.578125 C-47.57840729 348.32261932 -47.57840729 348.32261932 -47.54681396 350.10235596 C-47.54300865 364.21222298 -52.48481716 376.43037814 -62.1875 386.6875 C-76.54092969 400.25149106 -93.26275339 404.61025036 -112.46875 404.3515625 C-119.17347458 404.08237821 -124.198689 402.45482549 -130 399 C-131.093125 398.38125 -132.18625 397.7625 -133.3125 397.125 C-141.41270544 390.72018639 -147.38254275 383.51347211 -149 373 C-150.13954444 361.93013974 -147.42884295 352.20182913 -140.75 343.25 C-139.52327619 341.81313078 -138.27254822 340.39644744 -137 339 C-136.35417969 338.25105469 -135.70835937 337.50210937 -135.04296875 336.73046875 C-125.51153356 326.35022301 -111.40068999 318.51192233 -97.2265625 317.625 C-83.29253888 317.12251751 -72.24573771 319.31861103 -61 328 C-60.67 328.33 -60.34 328.66 -60 329 C-59.67 319.43 -59.34 309.86 -59 300 C-63.455 298.515 -63.455 298.515 -68 297 C-70.46652185 295.64170195 -72.74210916 294.31069941 -75.0625 292.75 C-75.96790527 292.14913574 -75.96790527 292.14913574 -76.89160156 291.53613281 C-90.95977245 282.05392834 -100.42305056 269.57882187 -107 254 C-107.43441406 252.98292969 -107.86882812 251.96585938 -108.31640625 250.91796875 C-114.18111088 234.34558041 -113.00974948 213.9808644 -106 198 C-105.71592285 197.3385498 -105.4318457 196.67709961 -105.13916016 195.99560547 C-99.34936004 182.74339632 -91.32959519 172.15816626 -81.25 161.875 C-80.73872559 161.3495459 -80.22745117 160.8240918 -79.70068359 160.28271484 C-76.79365829 157.41068232 -74.16940412 155.09783534 -70.59500122 153.03352356 C-65.80637217 150.16800967 -61.11346737 147.17513021 -59.19578552 141.70672607 C-57.93546831 134.95410625 -58.24601121 128.10549222 -58.4140625 121.26953125 C-58.41774152 119.06565015 -58.41523327 116.86175084 -58.40682983 114.65788269 C-58.40130039 108.88760123 -58.47921819 103.1214186 -58.57513428 97.35205078 C-58.65824147 91.4529658 -58.66160232 85.55387874 -58.671875 79.65429688 C-58.70364477 68.10149004 -58.82366256 56.55144205 -59 45 C-56.54232326 47.45538175 -54.086682 49.91202209 -51.6484375 52.38671875 C-50.89820313 53.14597656 -50.14796875 53.90523438 -49.375 54.6875 C-48.61960937 55.45449219 -47.86421875 56.22148437 -47.0859375 57.01171875 C-44.96464641 59.14819769 -44.96464641 59.14819769 -42 61 C-41.85304688 60.27039063 -41.70609375 59.54078125 -41.5546875 58.7890625 C-37.21442852 38.58440862 -30.2996727 15.1054444 -12.22949219 2.79370117 C-7.91970165 0.21570644 -5.01972309 -0.65070485 0 0 Z " fill="#2FCBB2" transform="translate(523,244)"/>
<path d="M0 0 C71.77200791 12.15084075 71.77200791 12.15084075 87.52734375 32.62890625 C91.55277372 39.11016883 92.4333842 44.09960607 92.34057617 51.60717773 C92.34101425 52.54454269 92.34145233 53.48190765 92.34190369 54.44767761 C92.33982419 57.52653287 92.3165326 60.60483436 92.29296875 63.68359375 C92.28736982 65.8259298 92.28310112 67.96826969 92.28010559 70.11061096 C92.26868027 75.73471784 92.23923286 81.35859036 92.20599365 86.98260498 C92.17524295 92.72730337 92.16158957 98.47203981 92.14648438 104.21679688 C92.11436106 115.47796726 92.0631926 126.7389641 92 138 C88.83005737 134.92446319 86.5804191 131.9556845 84.3125 128.15234375 C83.97354706 127.58832855 83.63459412 127.02431335 83.28536987 126.44320679 C82.56111351 125.23695209 81.83940869 124.02916232 81.12005615 122.81997681 C79.21939102 119.62553159 77.30011226 116.44229139 75.3828125 113.2578125 C75.00295197 112.62581436 74.62309143 111.99381622 74.23171997 111.34266663 C71.18658073 106.28481861 68.05615707 101.28595139 64.875 96.3125 C59.72087115 88.22980857 54.78590973 80.02460401 49.87353516 71.79321289 C43.21381975 60.64787784 36.40101135 49.59932958 29.57128906 38.55761719 C28 36 28 36 26.65600586 33.21313477 C25.17563771 30.74928586 25.17563771 30.74928586 22.36450195 30.34057617 C21.33284912 30.32486572 20.30119629 30.30915527 19.23828125 30.29296875 C17.72681519 30.25079224 17.72681519 30.25079224 16.18481445 30.20776367 C14.90695068 30.20107666 13.62908691 30.19438965 12.3125 30.1875 C8.249375 30.125625 4.18625 30.06375 0 30 C0 43.53 0 57.06 0 71 C-10.125 68.75 -10.125 68.75 -15.0625 67.375 C-16.00222656 67.11460937 -16.94195312 66.85421875 -17.91015625 66.5859375 C-18.59980469 66.39257812 -19.28945313 66.19921875 -20 66 C-19.48050781 67.02738281 -18.96101563 68.05476563 -18.42578125 69.11328125 C-17.72134323 70.51301533 -17.01691696 71.91275532 -16.3125 73.3125 C-15.94455322 74.03856445 -15.57660645 74.76462891 -15.19750977 75.51269531 C-13.09115376 79.70042528 -11.19578535 83.90148891 -9.4375 88.25 C-7.5541391 92.48913673 -5.99542674 94.10815536 -1.83203125 96.00390625 C4.11989465 99.24002801 8.13241654 105.81172065 10.3359375 112.0390625 C12.75013109 122.80352566 11.78997199 133.47630775 6 143 C-1.7624532 153.75741546 -11.56301106 159.33995326 -24.20703125 162.5625 C-28.10433636 163.17298696 -31.93599708 163.18426601 -35.875 163.1875 C-36.65230469 163.19974609 -37.42960937 163.21199219 -38.23046875 163.22460938 C-38.99746094 163.22654297 -39.76445312 163.22847656 -40.5546875 163.23046875 C-41.24030762 163.23457764 -41.92592773 163.23868652 -42.63232422 163.24291992 C-45 163 -45 163 -52 161 C-52 156.05 -52 151.1 -52 146 C-53.32 145.34 -54.64 144.68 -56 144 C-57.6328125 142.484375 -57.6328125 142.484375 -59.125 140.75 C-59.62257813 140.18796875 -60.12015625 139.6259375 -60.6328125 139.046875 C-65.23928519 132.15032731 -64.63626681 123.94094032 -64 116 C-62.10175588 106.71261769 -55.63645976 99.93351264 -48.578125 93.9453125 C-44.72618233 89.54475981 -42.60749041 84.47658452 -40.1875 79.1875 C-39.68541016 78.11306641 -39.18332031 77.03863281 -38.66601562 75.93164062 C-37.43423599 73.29211284 -36.21265022 70.6483568 -35 68 C-36.25039063 68.13277344 -37.50078125 68.26554687 -38.7890625 68.40234375 C-39.49240723 68.47702881 -40.19575195 68.55171387 -40.92041016 68.62866211 C-43.92074492 69.16441102 -46.34625405 70.54675817 -49 72 C-49.66 72 -50.32 72 -51 72 C-53.85085893 49.32227 -53.85085893 49.32227 -49.41064453 42.59033203 C-45.2562145 38.57967464 -40.33151206 35.87860833 -35.23925781 33.22314453 C-32.17543489 31.54959974 -29.72286911 29.57342593 -27.0625 27.3125 C-26.22332031 26.60867188 -25.38414062 25.90484375 -24.51953125 25.1796875 C-15.46385042 17.3454706 -7.45419034 9.35396239 0 0 Z " fill="#FCFDFC" transform="translate(527,364)"/>
<path d="M0 0 C3.63 0.99 7.26 1.98 11 3 C11.09095448 10.22458399 11.16408806 17.44884666 11.20724869 24.67388535 C11.22798112 28.03012398 11.25824185 31.38563338 11.30175781 34.74169922 C11.35068783 38.61436659 11.3730637 42.48645316 11.390625 46.359375 C11.42159271 48.13667999 11.42159271 48.13667999 11.45318604 49.94989014 C11.45694378 64.13235246 6.57212401 76.37018319 -3.1875 86.6875 C-17.54092969 100.25149106 -34.26275339 104.61025036 -53.46875 104.3515625 C-60.17347458 104.08237821 -65.198689 102.45482549 -71 99 C-72.093125 98.38125 -73.18625 97.7625 -74.3125 97.125 C-82.41270544 90.72018639 -88.38254275 83.51347211 -90 73 C-91.13954444 61.93013974 -88.42884295 52.20182913 -81.75 43.25 C-80.52327619 41.81313078 -79.27254822 40.39644744 -78 39 C-77.03126953 37.87658203 -77.03126953 37.87658203 -76.04296875 36.73046875 C-66.51153356 26.35022301 -52.40068999 18.51192233 -38.2265625 17.625 C-24.29253888 17.12251751 -13.24573771 19.31861103 -2 28 C-1.67 28.33 -1.34 28.66 -1 29 C-0.67 19.43 -0.34 9.86 0 0 Z " fill="#1D2362" transform="translate(464,544)"/>
<path d="M0 0 C3.97385167 0.83129702 7.94234617 1.68488469 11.90869141 2.55126953 C13.93997467 2.98712041 15.97502934 3.39887203 18.01171875 3.80859375 C40.53005083 8.5166536 64.73273951 17.68415581 78 37.5 C83.91350745 47.56738585 86.16427081 57.15159285 86.09765625 68.67578125 C86.0962413 69.6009404 86.09482635 70.52609955 86.09336853 71.47929382 C86.08778715 74.42372927 86.07523805 77.36808767 86.0625 80.3125 C86.05748259 82.31314994 86.05292011 84.31380108 86.04882812 86.31445312 C86.03782381 91.20966494 86.02057198 96.10481942 86 101 C85.31176147 100.30656494 85.31176147 100.30656494 84.60961914 99.59912109 C83.51421694 98.51086318 82.39139319 97.44967847 81.24609375 96.4140625 C76.12675686 91.35001003 75.27672049 87.28277079 74.50390625 80.24609375 C73.04145688 70.82519895 66.99972168 62.79125815 59.52734375 57.125 C37.86702126 42.66400772 10.11636642 40.39189564 -15 36 C-15 31.26026008 -13.90723674 29.94261465 -11.3125 26.0625 C-6.04158275 17.91134468 -3.03722979 9.18009545 0 0 Z " fill="#1E2462" transform="translate(544,329)"/>
<path d="M0 0 C5 5 5 5 6.96484375 7.140625 C21.6776594 22.87314075 41.8374367 30.07494103 62 36 C60.64643533 40.84356655 58.5045081 44.60283434 55.5625 48.625 C55.12945557 49.22530029 54.69641113 49.82560059 54.25024414 50.4440918 C49.36052073 57.08332525 43.82766297 63.17233703 38 69 C28.65548367 68.83606112 19.30892007 65.15446003 11 61 C11.04713135 61.87213135 11.0942627 62.7442627 11.14282227 63.64282227 C11.29704773 66.90671896 11.40937784 70.16670643 11.49438477 73.43286133 C11.53941404 74.84071221 11.6006671 76.2481475 11.67895508 77.65454102 C12.31165801 89.32025979 12.31165801 89.32025979 9.02685547 93.52685547 C3.40189594 98 3.40189594 98 0 98 C0 65.66 0 33.32 0 0 Z " fill="#1D2462" transform="translate(464,289)"/>
<path d="M0 0 C6.74391089 2.60560193 10.0531733 13.39289404 13.0859375 19.546875 C13.56954742 20.52489075 14.05315735 21.50290649 14.55142212 22.51055908 C15.56385924 24.56331341 16.57386488 26.6172686 17.58154297 28.67236328 C19.12997667 31.82262495 20.69561821 34.96396023 22.26171875 38.10546875 C23.245861 40.10624521 24.22897093 42.10752984 25.2109375 44.109375 C25.68163666 45.04795349 26.15233582 45.98653198 26.63729858 46.95355225 C27.0616922 47.82836243 27.48608582 48.70317261 27.92333984 49.60449219 C28.30130707 50.37090027 28.67927429 51.13730835 29.06869507 51.92694092 C29.86407363 54.42006525 29.66839172 55.64137208 28.75 58.0625 C27.75 59.0625 27.75 59.0625 25.50376892 59.18275452 C24.51115555 59.18053391 23.51854218 59.17831329 22.49584961 59.17602539 C21.37476303 59.17594986 20.25367645 59.17587433 19.09861755 59.17579651 C17.26896202 59.16805458 17.26896202 59.16805458 15.40234375 59.16015625 C14.16078018 59.1587413 12.91921661 59.15732635 11.64002991 59.15586853 C8.33394509 59.15120591 5.02792854 59.14221497 1.72186279 59.13116455 C-1.6496115 59.12094827 -5.02109283 59.11637045 -8.39257812 59.11132812 C-15.01173775 59.10027395 -21.63086493 59.08351736 -28.25 59.0625 C-29.16548179 55.54310407 -29.42336512 53.53750661 -27.83813477 50.24462891 C-27.50350723 49.53263336 -27.1688797 48.82063782 -26.82411194 48.08706665 C-26.45031906 47.32872528 -26.07652618 46.57038391 -25.69140625 45.7890625 C-25.30943588 44.98826263 -24.92746552 44.18746277 -24.53392029 43.36239624 C-23.30618638 40.79774811 -22.05932947 38.24290944 -20.8125 35.6875 C-20.00727762 34.00707817 -19.20322934 32.3260932 -18.40039062 30.64453125 C-3.74904036 0.10414001 -3.74904036 0.10414001 0 0 Z " fill="#232664" transform="translate(500.25,434.9375)"/>
<path d="M0 0 C0.20532768 4.4576413 0.32831591 8.91405002 0.4375 13.375 C0.49615234 14.62667969 0.55480469 15.87835938 0.61523438 17.16796875 C0.75963816 25.0482898 -0.12274956 29.71328125 -5.24609375 35.81396484 C-11.51527679 43.62775451 -11.90232413 53.40862871 -11 63 C-9.62707729 71.22618978 -5.84200775 77.15799225 0 83 C0.22705078 84.87939453 0.22705078 84.87939453 0.1953125 87.1328125 C0.18886719 87.93847656 0.18242187 88.74414062 0.17578125 89.57421875 C0.15902344 90.41597656 0.14226562 91.25773437 0.125 92.125 C0.11597656 92.97449219 0.10695313 93.82398438 0.09765625 94.69921875 C0.07405647 96.79959884 0.03818483 98.89983444 0 101 C-14.58947506 93.0437299 -24.0335288 81.84345358 -29 66 C-32.66132899 51.33136348 -29.1188833 36.37270365 -21.640625 23.53125 C-19.01003284 19.47262209 -16.08519854 15.71974292 -13 12 C-12.35224609 11.16855469 -12.35224609 11.16855469 -11.69140625 10.3203125 C-3.53675518 0 -3.53675518 0 0 0 Z " fill="#FAFCFC" transform="translate(464,419)"/>
<path d="M0 0 C3.63 0 7.26 0 11 0 C11.33 1.65 11.66 3.3 12 5 C12.78375 4.360625 13.5675 3.72125 14.375 3.0625 C19.07538857 -0.63066245 23.14791176 -0.66623774 29 0 C32.375 1.8125 32.375 1.8125 35 4 C35.78375 4.5775 36.5675 5.155 37.375 5.75 C37.91125 6.1625 38.4475 6.575 39 7 C39.20625 6.401875 39.4125 5.80375 39.625 5.1875 C41.63843195 1.98431281 43.43830904 1.27203249 47 0 C51.99645703 -0.67322392 55.79580628 -0.57979698 60.375 1.625 C64.34024333 5.21260111 66.77588755 8.21408884 67.45410156 13.61865234 C67.4331543 14.92785645 67.41220703 16.23706055 67.390625 17.5859375 C67.38496521 18.28772125 67.37930542 18.989505 67.37347412 19.71255493 C67.35124483 21.93409087 67.30108056 24.15395923 67.25 26.375 C67.22991731 27.88929947 67.21166964 29.40362446 67.1953125 30.91796875 C67.15142633 34.61251268 67.08249577 38.30609333 67 42 C63.7 42 60.4 42 57 42 C56.9906543 41.23856689 56.98130859 40.47713379 56.97167969 39.69262695 C56.91789063 36.2319338 56.83425816 32.77257982 56.75 29.3125 C56.73582031 28.11431641 56.72164063 26.91613281 56.70703125 25.68164062 C56.67480469 24.52470703 56.64257812 23.36777344 56.609375 22.17578125 C56.58842773 21.11270752 56.56748047 20.04963379 56.54589844 18.9543457 C55.87029937 15.29807366 54.63135173 13.59334856 52 11 C48.5 10.25 48.5 10.25 45 11 C42.63502561 12.86708505 41.33969285 14.32061431 40 17 C39.84655791 18.88472859 39.75040429 20.77427874 39.68359375 22.6640625 C39.62075195 24.34628906 39.62075195 24.34628906 39.55664062 26.0625 C39.51732422 27.238125 39.47800781 28.41375 39.4375 29.625 C39.37272461 31.40003906 39.37272461 31.40003906 39.30664062 33.2109375 C39.20032574 36.14050328 39.09829358 39.07015588 39 42 C35.7 42 32.4 42 29 42 C28.99589111 41.23856689 28.99178223 40.47713379 28.98754883 39.69262695 C28.9545886 36.23180334 28.88393946 32.77273429 28.8125 29.3125 C28.80669922 28.11431641 28.80089844 26.91613281 28.79492188 25.68164062 C28.88951366 18.6278917 28.88951366 18.6278917 25.63671875 12.70703125 C22.35105532 10.57986841 20.83839378 10.20033463 17 11 C14.44118726 12.65659432 13.4325872 13.39985093 12 16 C11.23036213 20.43092605 11.20923433 24.82315381 11.1875 29.3125 C11.16236328 30.53001953 11.13722656 31.74753906 11.11132812 33.00195312 C11.05251099 36.00162687 11.01618961 38.99984298 11 42 C7.37 42 3.74 42 0 42 C0 28.14 0 14.28 0 0 Z " fill="#252762" transform="translate(349,698)"/>
<path d="M0 0 C10 0 10 0 12.62890625 1.984375 C13.58603516 3.35335937 13.58603516 3.35335937 14.5625 4.75 C15.2946875 5.75417969 16.026875 6.75835938 16.78125 7.79296875 C17.5134375 8.85128906 18.245625 9.90960937 19 11 C20.51459579 13.02551252 22.03539223 15.04640396 23.5625 17.0625 C24.66078125 18.54556641 24.66078125 18.54556641 25.78125 20.05859375 C28.60709274 23.80482541 31.56955971 27.42882631 34.56640625 31.0390625 C36 33 36 33 36 35 C36.66 35 37.32 35 38 35 C38 23.78 38 12.56 38 1 C41.3 1 44.6 1 48 1 C48 18.49 48 35.98 48 54 C38 54 38 54 34.71484375 51.140625 C33.75655968 49.86757852 32.83171991 48.56883526 31.9375 47.25 C31.43855225 46.57130859 30.93960449 45.89261719 30.42553711 45.19335938 C29.41071281 43.80846086 28.40899041 42.41386195 27.42089844 41.00976562 C26.11981239 39.1694666 24.78279174 37.36841011 23.4140625 35.578125 C19.50130183 30.45643827 15.74734836 25.2462877 12 20 C11.67 31.22 11.34 42.44 11 54 C7.37 54 3.74 54 0 54 C0 36.18 0 18.36 0 0 Z " fill="#2FCEB5" transform="translate(596,686)"/>
<path d="M0 0 C6.05063955 2.74025925 9.92129507 6.38922734 13.1953125 12.1640625 C15.27979781 18.41751843 14.91276001 24.38340852 12.2578125 30.4140625 C9.14846894 36.0553001 4.36884798 39.84394617 -1.79296875 41.79296875 C-10.2210521 43.34766374 -16.66687909 41.9313327 -23.8046875 37.1640625 C-26.2421875 34.7265625 -26.2421875 34.7265625 -27.8046875 32.1640625 C-28.6709375 30.8646875 -28.6709375 30.8646875 -29.5546875 29.5390625 C-31.63864916 23.91236602 -31.85456973 18.41007518 -29.99609375 12.6640625 C-24.35083696 1.10007628 -12.15518313 -3.62285403 0 0 Z " fill="#33D1B8" transform="translate(684.8046875,698.8359375)"/>
<path d="M0 0 C0 8.91 0 17.82 0 27 C3.96 25.02 7.92 23.04 12 21 C13.98 21 15.96 21 18 21 C16.58481442 24.0007008 15.16757567 27.00042767 13.75 30 C13.35425781 30.83917969 12.95851563 31.67835938 12.55078125 32.54296875 C11.75650735 34.22266273 10.95775487 35.90024622 10.15454102 37.57568359 C9.41508817 39.12839383 8.69017086 40.68816173 7.98413086 42.25634766 C5.94635549 46.64705523 3.95193902 49.34255602 0.0625 52.375 C-5.81599171 57.36911685 -8.59217956 62.77653867 -11 70 C-11.6077014 78.30857322 -12.21572719 86.99559404 -7 94 C-5.77445083 94.92900301 -4.52318543 95.82493624 -3.25 96.6875 C-1.41796875 98.05078125 -1.41796875 98.05078125 0 100 C0.60924975 104.72036113 0.40842292 109.2674804 0 114 C-4.12751449 113.39301257 -7.3321148 111.96189209 -11 110 C-10.99097656 108.7934375 -10.98195313 107.586875 -10.97265625 106.34375 C-10.69820649 96.05329524 -10.69820649 96.05329524 -15.375 87.375 C-16.31859375 86.52808594 -16.31859375 86.52808594 -17.28125 85.6640625 C-20.15616823 82.88061894 -20.86333672 79.78887762 -22 76 C-22.27263672 75.09701172 -22.27263672 75.09701172 -22.55078125 74.17578125 C-24.48993478 64.78353327 -23.31981618 55.49153739 -19 47 C-17.8056715 45.51513228 -16.59398322 44.04409558 -15.3671875 42.5859375 C-10.09724932 35.20185236 -11.43045206 27.20260507 -11.89257812 18.5234375 C-12.03283571 9.23741793 -12.03283571 9.23741793 -8.76416016 5.32128906 C-2.18453723 0 -2.18453723 0 0 0 Z " fill="#202562" transform="translate(475,410)"/>
<path d="M0 0 C4.08950508 3.63417874 7.64565618 7.99498036 8.30078125 13.55078125 C8.33277769 21.09127553 7.71823624 25.93327194 2.5625 31.75 C-4.20536791 37.69251817 -9.27762108 38.53288827 -18.25 38.34765625 C-24.73581093 37.74636753 -28.07211856 35.08008261 -32.375 30.4375 C-36.76838633 23.84742051 -36.9733632 17.84720244 -36 10 C-33.41962783 3.47101562 -29.30581877 -0.19741388 -23 -3 C-14.90189851 -5.38084184 -7.28300369 -4.24120588 0 0 Z " fill="#252763" transform="translate(461,702)"/>
<path d="M0 0 C3.63 0 7.26 0 11 0 C11 7.26 11 14.52 11 22 C19.58 22 28.16 22 37 22 C37 14.74 37 7.48 37 0 C40.96 0 44.92 0 49 0 C49 17.82 49 35.64 49 54 C45.37 54 41.74 54 38 54 C38 46.74 38 39.48 38 32 C29.09 32 20.18 32 11 32 C11 39.26 11 46.52 11 54 C7.37 54 3.74 54 0 54 C0 36.18 0 18.36 0 0 Z " fill="#31336A" transform="translate(211,686)"/>
<path d="M0 0 C6.11048003 10.05272521 5.9550147 20.05317682 3.91015625 31.51953125 C1.97642044 38.9142034 -1.07148406 45.95276913 -4 53 C-10.78003023 52.16686069 -17.00363941 50.45542361 -23.375 48.0625 C-24.05240234 47.80968262 -24.72980469 47.55686523 -25.42773438 47.29638672 C-29.18970163 45.84323832 -32.61361134 44.190039 -36 42 C-32.85001308 25.25055032 -24.73565816 11.80874515 -11.5625 1 C-7.73715478 -0.49281765 -4.05569811 -0.23857048 0 0 Z " fill="#FAFDFC" transform="translate(531,272)"/>
<path d="M0 0 C4.61260215 2.88287634 6.44177803 6.97418629 8.390625 11.8359375 C8.90625 14.19140625 8.90625 14.19140625 8.90625 22.19140625 C-0.99375 22.19140625 -10.89375 22.19140625 -21.09375 22.19140625 C-18.92708333 28.02473958 -18.92708333 28.02473958 -16.09375 29.19140625 C-14.30515489 29.31348496 -12.51146619 29.36689073 -10.71875 29.37890625 C-9.76226563 29.39308594 -8.80578125 29.40726563 -7.8203125 29.421875 C-5.03949946 29.1868206 -3.50404029 28.51574157 -1.09375 27.19140625 C1.44955381 27.42261569 2.64796615 27.98846894 4.65625 29.56640625 C5.90625 31.19140625 5.90625 31.19140625 5.90625 34.19140625 C-0.60779921 39.25788897 -7.24066929 40.17936924 -15.265625 39.73828125 C-21.55296963 38.84008916 -25.63708376 36.400254 -29.484375 31.375 C-33.15077879 25.39772904 -34.00426452 19.07199893 -33.09375 12.19140625 C-30.49022661 5.71626402 -25.79351568 1.34960289 -19.84375 -2.12109375 C-12.77005043 -3.88951864 -6.5094727 -3.28911737 0 0 Z " fill="#38D2B8" transform="translate(769.09375,700.80859375)"/>
<path d="M0 0 C3.42981955 2.56203388 5.28058904 5.18942336 6.62109375 9.2109375 C6.70488003 11.4947892 6.7283929 13.7810385 6.71875 16.06640625 C6.71733505 16.72804276 6.7159201 17.38967926 6.71446228 18.07136536 C6.70887371 20.18043578 6.6963234 22.28939927 6.68359375 24.3984375 C6.67857727 25.83007659 6.67401462 27.26171735 6.66992188 28.69335938 C6.65890805 32.19925338 6.6416513 35.705085 6.62109375 39.2109375 C2.99109375 39.2109375 -0.63890625 39.2109375 -4.37890625 39.2109375 C-4.70890625 38.2209375 -5.03890625 37.2309375 -5.37890625 36.2109375 C-6.4153125 36.94183594 -6.4153125 36.94183594 -7.47265625 37.6875 C-10.87088674 39.4688305 -13.06361175 39.61268022 -16.87890625 39.5859375 C-17.98234375 39.59367188 -19.08578125 39.60140625 -20.22265625 39.609375 C-23.71412718 39.16862001 -25.57614296 38.30432885 -28.37890625 36.2109375 C-31.26759381 31.8281012 -31.94687204 28.41729055 -31.37890625 23.2109375 C-29.7275132 19.6722381 -28.66285396 18.40023597 -25.37890625 16.2109375 C-20.76004997 15.14659236 -16.21924935 15.0890388 -11.50390625 15.1484375 C-10.47136719 15.15520508 -10.47136719 15.15520508 -9.41796875 15.16210938 C-7.7382429 15.17377414 -6.0585625 15.19170479 -4.37890625 15.2109375 C-5.64837139 10.38651566 -5.64837139 10.38651566 -9.37890625 7.2109375 C-14.9910636 6.55409292 -20.14345256 7.00653595 -25.37890625 9.2109375 C-26.94140625 6.3984375 -26.94140625 6.3984375 -28.37890625 3.2109375 C-27.37890625 0.2109375 -27.37890625 0.2109375 -25.734375 -0.73828125 C-17.20593745 -3.64255998 -8.0472059 -4.7179045 0 0 Z " fill="#252560" transform="translate(300.37890625,700.7890625)"/>
<path d="M0 0 C3.63 0 7.26 0 11 0 C11.33 1.65 11.66 3.3 12 5 C12.763125 4.360625 13.52625 3.72125 14.3125 3.0625 C18.93546129 -0.48535402 23.37572831 -0.63705343 29 0 C33.55293766 1.32594325 36.16353966 2.99683769 39.21484375 6.65625 C42.48423274 12.73431612 41.41035706 20.23049022 41.25 26.9375 C41.22990977 28.39906415 41.21166344 29.86065486 41.1953125 31.32226562 C41.15150336 34.88206774 41.08261546 38.44086254 41 42 C37.37 42 33.74 42 30 42 C29.98018066 41.19780029 29.96036133 40.39560059 29.93994141 39.5690918 C29.84480505 35.94155823 29.7350792 32.31460955 29.625 28.6875 C29.5940625 27.42486328 29.563125 26.16222656 29.53125 24.86132812 C29.49257813 23.65283203 29.45390625 22.44433594 29.4140625 21.19921875 C29.3826416 20.08377686 29.3512207 18.96833496 29.31884766 17.8190918 C29.194751 14.79631214 29.194751 14.79631214 27 12 C23.32757535 10.77585845 20.8577463 10.53440993 17 11 C13.64897401 13.78355298 12.25761804 15.51499043 11.5078125 19.8371582 C11.28389487 23.19057912 11.20456923 26.51425904 11.1875 29.875 C11.16236328 31.0403125 11.13722656 32.205625 11.11132812 33.40625 C11.05263504 36.27047239 11.0234116 39.13527197 11 42 C7.37 42 3.74 42 0 42 C0 28.14 0 14.28 0 0 Z " fill="#2B2E68" transform="translate(477,698)"/>
<path d="M0 0 C3.63 0 7.26 0 11 0 C14.89634941 8.5719687 18.43809992 17.2853512 22 26 C23.77911425 23.33132863 24.79858056 21.15651713 25.91015625 18.18359375 C26.26013672 17.25482422 26.61011719 16.32605469 26.97070312 15.36914062 C27.33099609 14.40169922 27.69128906 13.43425781 28.0625 12.4375 C28.78169916 10.51921126 29.5017114 8.6012271 30.22265625 6.68359375 C30.53984619 5.83337646 30.85703613 4.98315918 31.18383789 4.10717773 C32 2 32 2 33 0 C36.63 0 40.26 0 44 0 C41.14900578 7.4875798 38.2785801 14.96719502 35.38134766 22.43701172 C34.4977586 24.71610303 33.61695357 26.99627689 32.73974609 29.27783203 C31.59126534 32.25376074 30.42369276 35.22143957 29.25 38.1875 C28.9104126 39.0758252 28.5708252 39.96415039 28.22094727 40.87939453 C26.03013914 46.34354009 23.47138534 51.0571738 19 55 C15.96693887 56.01102038 13.74059761 56.1982535 10.5625 56.25 C9.61503906 56.27578125 8.66757812 56.3015625 7.69140625 56.328125 C4.6097166 55.95241828 3.28027445 55.0484735 1 53 C1.54723683 49.62537285 2.0549 47.91765 4 45 C4.99 45.33 5.98 45.66 7 46 C10.54178598 46.25003964 10.54178598 46.25003964 14 46 C14.66 45.34 15.32 44.68 16 44 C15.90395327 36.49962364 12.79583795 30.3987756 9.6875 23.6875 C6.11705805 15.87981832 2.83285684 8.1082957 0 0 Z " fill="#262864" transform="translate(523,699)"/>
<path d="M0 0 C1.64453125 0.94921875 1.64453125 0.94921875 2.64453125 3.94921875 C1.70703125 7.13671875 1.70703125 7.13671875 0.64453125 9.94921875 C-0.44214844 9.624375 -0.44214844 9.624375 -1.55078125 9.29296875 C-8.82214189 7.18318306 -8.82214189 7.18318306 -16.35546875 6.94921875 C-16.68546875 8.59921875 -17.01546875 10.24921875 -17.35546875 11.94921875 C-16.65421875 12.1915625 -15.95296875 12.43390625 -15.23046875 12.68359375 C0.60379762 18.27722046 0.60379762 18.27722046 2.8359375 21.86328125 C4.07696749 25.06477891 3.99658521 27.54603045 3.64453125 30.94921875 C1.33357636 35.39994668 -0.8566684 37.792769 -5.35546875 39.94921875 C-8.0282291 40.29372062 -10.37684499 40.4719199 -13.04296875 40.44921875 C-13.74615234 40.44857422 -14.44933594 40.44792969 -15.17382812 40.44726562 C-21.41015252 40.27006484 -26.16416057 38.44336848 -31.35546875 34.94921875 C-31.04609375 34.18609375 -30.73671875 33.42296875 -30.41796875 32.63671875 C-29.67653282 30.76132198 -28.99318658 28.86237223 -28.35546875 26.94921875 C-27.30359375 27.38234375 -27.30359375 27.38234375 -26.23046875 27.82421875 C-25.28171875 28.19546875 -24.33296875 28.56671875 -23.35546875 28.94921875 C-22.42734375 29.32046875 -21.49921875 29.69171875 -20.54296875 30.07421875 C-16.63023896 31.14830144 -13.40230286 31.08876475 -9.35546875 30.94921875 C-9.02546875 29.29921875 -8.69546875 27.64921875 -8.35546875 25.94921875 C-11.15598682 24.41590343 -13.59232022 23.61376008 -16.73046875 23.07421875 C-21.67820269 22.03087452 -25.59358846 20.27169732 -28.73046875 16.13671875 C-30.0687779 11.45263674 -29.91331572 8.06491269 -27.73046875 3.69921875 C-20.55947112 -4.60404166 -9.59737675 -3.26829587 0 0 Z " fill="#36D2B8" transform="translate(813.35546875,700.05078125)"/>
<path d="M0 0 C3.3 0 6.6 0 10 0 C10 5.94 10 11.88 10 18 C15.94 18 21.88 18 28 18 C28 21.3 28 24.6 28 28 C22.06 28 16.12 28 10 28 C10 33.61 10 39.22 10 45 C6.7 45 3.4 45 0 45 C0 39.39 0 33.78 0 28 C-5.94 28 -11.88 28 -18 28 C-18 24.37 -18 20.74 -18 17 C-12.06 17 -6.12 17 0 17 C0 11.39 0 5.78 0 0 Z " fill="#31CFB8" transform="translate(500,555)"/>
<path d="M0 0 C3.3 0 6.6 0 10 0 C10.33 3.3 10.66 6.6 11 10 C16.445 10.495 16.445 10.495 22 11 C22 13.64 22 16.28 22 19 C18.37 19 14.74 19 11 19 C11.33 26.59 11.66 34.18 12 42 C16.455 41.505 16.455 41.505 21 41 C23 45 23 45 23 49 C18.01572647 51.98817358 12.63032542 51.62388011 7 51 C2.76597375 48.71362582 1.47377643 46.46916874 0 42 C-0.22705078 39.22924805 -0.22705078 39.22924805 -0.1953125 36.26171875 C-0.18886719 35.19501953 -0.18242188 34.12832031 -0.17578125 33.02929688 C-0.15902344 31.92650391 -0.14226563 30.82371094 -0.125 29.6875 C-0.11597656 28.56537109 -0.10695313 27.44324219 -0.09765625 26.28710938 C-0.07414486 23.52452091 -0.04128155 20.76237068 0 18 C-1.98 18 -3.96 18 -6 18 C-6 15.69 -6 13.38 -6 11 C-4.02 11 -2.04 11 0 11 C0 7.37 0 3.74 0 0 Z " fill="#35D1B9" transform="translate(709,689)"/>
<path d="M0 0 C0.66 0 1.32 0 2 0 C4.42605899 4.94548633 6.84700218 9.89343033 9.26318359 14.84375 C10.08631575 16.52835999 10.91085575 18.21228282 11.73681641 19.89550781 C12.92198227 22.31136812 14.10210684 24.72963307 15.28125 27.1484375 C15.65310425 27.9036972 16.0249585 28.65895691 16.40808105 29.43710327 C19 34.77225659 19 34.77225659 19 37 C7.45 37 -4.1 37 -16 37 C-14.10594689 31.31784067 -12.36713529 26.32608006 -9.86328125 20.99609375 C-9.57897751 20.38733902 -9.29467377 19.77858429 -9.00175476 19.15138245 C-8.10994636 17.24455276 -7.21138319 15.34100311 -6.3125 13.4375 C-5.6994155 12.12977017 -5.08678178 10.82182892 -4.47460938 9.51367188 C-2.98825841 6.33999516 -1.49584 3.16921737 0 0 Z " fill="#F8F9FA" transform="translate(499,449)"/>
<path d="M0 0 C0 3.3 0 6.6 0 10 C-1.051875 10.226875 -2.10375 10.45375 -3.1875 10.6875 C-7.16827855 11.80179501 -9.28228936 13.88262603 -12 17 C-12.33 17.33 -12.66 17.66 -13 18 C-13.15764405 19.77869726 -13.25100677 21.56318476 -13.31640625 23.34765625 C-13.35830078 24.42724609 -13.40019531 25.50683594 -13.44335938 26.61914062 C-13.48267578 27.75544922 -13.52199219 28.89175781 -13.5625 30.0625 C-13.60568359 31.20267578 -13.64886719 32.34285156 -13.69335938 33.51757812 C-13.79982839 36.34492195 -13.90184207 39.17235738 -14 42 C-17.3 42 -20.6 42 -24 42 C-24 28.47 -24 14.94 -24 1 C-20.7 1 -17.4 1 -14 1 C-13.67 2.65 -13.34 4.3 -13 6 C-12.05125 5.195625 -11.1025 4.39125 -10.125 3.5625 C-6.38981828 0.39571549 -5.3025431 0 0 0 Z " fill="#242561" transform="translate(342,698)"/>
<path d="M0 0 C3.63 0 7.26 0 11 0 C11.33 1.65 11.66 3.3 12 5 C12.598125 4.34 13.19625 3.68 13.8125 3 C18.44161669 0.09545619 22.67268974 0.66412755 28 1 C28 1.33 28 1.66 28 2 C23.545 2.495 23.545 2.495 19 3 C18.67 4.32 18.34 5.64 18 7 C17.67 7.33 17.34 7.66 17 8 C18.32 8.66 19.64 9.32 21 10 C19.88625 10.433125 18.7725 10.86625 17.625 11.3125 C13.82487666 12.69911119 13.82487666 12.69911119 12 16 C11.63155492 18.8086043 11.63155492 18.8086043 11.5859375 21.98046875 C11.52792969 23.72553711 11.52792969 23.72553711 11.46875 25.50585938 C11.42234375 27.32827148 11.42234375 27.32827148 11.375 29.1875 C11.31699219 31.02731445 11.31699219 31.02731445 11.2578125 32.90429688 C11.16343897 35.93604656 11.07785451 38.96778841 11 42 C7.37 42 3.74 42 0 42 C0 28.14 0 14.28 0 0 Z " fill="#2D3069" transform="translate(349,698)"/>
<path d="M0 0 C0.33 0 0.66 0 1 0 C1 9.9 1 19.8 1 30 C-2.63 30 -6.26 30 -10 30 C-10.33 29.01 -10.66 28.02 -11 27 C-12.03640625 27.73089844 -12.03640625 27.73089844 -13.09375 28.4765625 C-16.49198049 30.257893 -18.6847055 30.40174272 -22.5 30.375 C-23.6034375 30.38273438 -24.706875 30.39046875 -25.84375 30.3984375 C-29.33522093 29.95768251 -31.19723671 29.09339135 -34 27 C-36.88868756 22.6171637 -37.56796579 19.20635305 -37 14 C-35.34860695 10.4613006 -34.28394771 9.18929847 -31 7 C-27.8125 6.875 -27.8125 6.875 -25 7 C-24.67 8.32 -24.34 9.64 -24 11 C-17.07 11.495 -17.07 11.495 -10 12 C-10 17.39277414 -10.43560486 20.11126518 -12 25 C-11.01 25 -10.02 25 -9 25 C-9 26.32 -9 27.64 -9 29 C-6.03 29 -3.06 29 0 29 C0 19.43 0 9.86 0 0 Z " fill="#323269" transform="translate(306,710)"/>
<path d="M0 0 C2.70552388 2.19823815 4.44778333 3.89556667 6 7 C6.37168996 12.57534937 6.22542715 16.21747009 3 21 C0.16921982 23.35898348 -1.73441937 23.95573656 -5.375 24.5625 C-10.17037689 23.81838979 -12.86426413 21.64064249 -16 18 C-17.60288305 13.19135086 -17.77236515 8.82928589 -15.8125 4.1875 C-11.27910332 -1.28384083 -6.64489063 -2.01032017 0 0 Z " fill="#F6FDFA" transform="translate(682,708)"/>
<path d="M0 0 C4.14798495 1.79117532 6.2414131 3.83492576 8 8 C8.52893989 13.55386885 8.28916231 17.28553403 5 22 C1.56846736 24.41767072 -0.35643909 25.01129054 -4.5625 24.9375 C-8.29811554 23.91869576 -10.2400376 22.67878703 -13 20 C-14.98141781 16.03716439 -14.55820645 11.30789762 -14 7 C-10.76671785 0.75059645 -6.71854801 -0.45549478 0 0 Z " fill="#F6F7F8" transform="translate(450,707)"/>
<path d="M0 0 C7.20404235 1.44080847 7.20404235 1.44080847 10 3 C10.92578125 5.390625 10.92578125 5.390625 11.3125 8.25 C11.45300781 9.18328125 11.59351563 10.1165625 11.73828125 11.078125 C11.82464844 12.04234375 11.91101563 13.0065625 12 14 C12.12632812 15.01835937 12.25265625 16.03671875 12.3828125 17.0859375 C12 20 12 20 9.62890625 22.3359375 C8.61699219 23.00882812 7.60507812 23.68171875 6.5625 24.375 C5.55316406 25.06335938 4.54382813 25.75171875 3.50390625 26.4609375 C1 28 1 28 0 28 C0 18.76 0 9.52 0 0 Z " fill="#F7FBFB" transform="translate(476,351)"/>
<path d="M0 0 C3.0625 2.25 3.0625 2.25 5 5 C5 6.32 5 7.64 5 9 C-1.6 9 -8.2 9 -15 9 C-14 4 -14 4 -12 1.6875 C-7.93306451 -0.60015121 -4.566504 -0.96615003 0 0 Z " fill="#F5FDFB" transform="translate(762,707)"/>
<path d="M0 0 C1.27617187 0.02320313 2.55234375 0.04640625 3.8671875 0.0703125 C5.78917969 0.09738281 5.78917969 0.09738281 7.75 0.125 C9.23113281 0.15980469 9.23113281 0.15980469 10.7421875 0.1953125 C10.984375 5.8984375 10.984375 5.8984375 8.8046875 8.5703125 C4.79444089 10.69819846 1.21255026 10.95061937 -3.2578125 10.1953125 C-5.2578125 8.1953125 -5.2578125 8.1953125 -5.5078125 5.1953125 C-5.1488485 0.88774448 -4.29196614 0.25731212 0 0 Z " fill="#F5F5F8" transform="translate(285.2578125,721.8046875)"/>
<path d="M0 0 C3.3 0 6.6 0 10 0 C10 0.33 10 0.66 10 1 C8.2984375 1.2165625 8.2984375 1.2165625 6.5625 1.4375 C3.19222799 1.61171478 3.19222799 1.61171478 2 3 C1.92413507 4.83839701 1.91698602 6.67968391 1.9375 8.51953125 C1.94587891 9.6787207 1.95425781 10.83791016 1.96289062 12.03222656 C1.97513672 13.2797168 1.98738281 14.52720703 2 15.8125 C2.06626067 27.57979231 1.75749738 39.25879067 1 51 C3.31 51 5.62 51 8 51 C8 51.33 8 51.66 8 52 C5.36 52 2.72 52 0 52 C0 34.84 0 17.68 0 0 Z " fill="#191B58" transform="translate(212,687)"/>
<path d="M0 0 C-0.639375 0.268125 -1.27875 0.53625 -1.9375 0.8125 C-4.33131686 1.88667752 -4.33131686 1.88667752 -5 5 C-4.12516085 7.16715557 -4.12516085 7.16715557 -3 9 C-4.32 9.33 -5.64 9.66 -7 10 C-8.5625 7.1875 -8.5625 7.1875 -10 4 C-9 1 -9 1 -6.6875 -0.25 C-3.90126985 -1.0275526 -2.66561622 -0.98726527 0 0 Z " fill="#262364" transform="translate(282,700)"/>
<path d="M0 0 C0.66 0 1.32 0 2 0 C4.59227518 4.86051596 4.18689553 9.65271133 4 15 C3.67 15 3.34 15 3 15 C3 12.03 3 9.06 3 6 C2.34 6 1.68 6 1 6 C0.67 4.02 0.34 2.04 0 0 Z " fill="#5CD8BF" transform="translate(695,709)"/>
<path d="M0 0 C1.32 0 2.64 0 4 0 C3.79375 0.78375 3.5875 1.5675 3.375 2.375 C3.25125 3.24125 3.1275 4.1075 3 5 C3.66 5.66 4.32 6.32 5 7 C3.35 7 1.7 7 0 7 C0 4.69 0 2.38 0 0 Z " fill="#26D2B5" transform="translate(703,700)"/>
<path d="M0 0 C4.455 0.99 4.455 0.99 9 2 C9 2.33 9 2.66 9 3 C5.37 3.33 1.74 3.66 -2 4 C-1.34 2.68 -0.68 1.36 0 0 Z M0 4 C0.66 4.33 1.32 4.66 2 5 C1.01 5 0.02 5 -1 5 C-0.67 4.67 -0.34 4.34 0 4 Z " fill="#444A7A" transform="translate(527,744)"/>
<path d="M0 0 C0.33 0.99 0.66 1.98 1 3 C0.01 3.66 -0.98 4.32 -2 5 C-2.33 4.67 -2.66 4.34 -3 4 C-5.32817964 3.63239269 -7.6618385 3.29758419 -10 3 C-10 2.67 -10 2.34 -10 2 C-6.7 1.34 -3.4 0.68 0 0 Z " fill="#545581" transform="translate(293,730)"/>
<path d="M0 0 C0.33 0.66 0.66 1.32 1 2 C4.02934491 2.65772428 4.02934491 2.65772428 7 3 C7 3.33 7 3.66 7 4 C4.36 4.66 1.72 5.32 -1 6 C-1.33 4.68 -1.66 3.36 -2 2 C-1.34 1.34 -0.68 0.68 0 0 Z " fill="#2C2B6A" transform="translate(392,704)"/>
<path d="M0 0 C0.99 0 1.98 0 3 0 C2.67 2.64 2.34 5.28 2 8 C1.34 7.67 0.68 7.34 0 7 C0 4.69 0 2.38 0 0 Z " fill="#37386B" transform="translate(269,724)"/>
<path d="M0 0 C-1.28913487 0.67154933 -2.58140204 1.33708859 -3.875 2 C-4.59429687 2.37125 -5.31359375 2.7425 -6.0546875 3.125 C-8 4 -8 4 -10 4 C-9 1 -9 1 -6.6875 -0.25 C-3.83402593 -1.04631835 -2.75197675 -0.8214856 0 0 Z " fill="#464679" transform="translate(282,700)"/>
<path d="M0 0 C2 1 2 1 2 1 Z M-2 1 C-1.34 1.33 -0.68 1.66 0 2 C0.625 4.5625 0.625 4.5625 1 7 C-0.32 6.34 -1.64 5.68 -3 5 C-2.67 3.68 -2.34 2.36 -2 1 Z " fill="#2A3267" transform="translate(527,747)"/>
</svg>
