<?xml version="1.0" encoding="UTF-8"?>
<svg version="1.1" xmlns="http://www.w3.org/2000/svg" width="1024" height="1024">
<path d="M0 0 C14.18070906 9.5928326 18.64664071 27.36613987 21.80175781 43.28027344 C24.32388697 56.73712375 24.86668612 70.52159734 22 84 C22.8674585 84.15891724 22.8674585 84.15891724 23.75244141 84.32104492 C51.68030227 89.64811765 79.68515664 97.83243875 96.9921875 121.86328125 C108.0317101 139.1098506 108.16203382 159.48091811 108.12939453 179.29150391 C108.13075465 180.64519294 108.13253797 181.9988816 108.13470459 183.35256958 C108.13920203 186.9758779 108.13752276 190.59915726 108.1343255 194.22246599 C108.13176684 198.03440959 108.13414862 201.84635096 108.13571167 205.65829468 C108.13752102 212.0444991 108.13515735 218.43069188 108.13037109 224.81689453 C108.12490747 232.19194482 108.12671125 239.56696755 108.1321975 246.9420172 C108.13673613 253.29903544 108.1373762 259.6560454 108.13475883 266.01306474 C108.13320319 269.79964486 108.13298322 273.58621201 108.13629532 277.37279129 C108.13918573 280.92369506 108.13717682 284.47456318 108.13140106 288.0254631 C108.12945189 289.94592998 108.13241575 291.86639989 108.13552856 293.78686523 C108.13129883 295.50638901 108.13129883 295.50638901 108.12698364 297.26065063 C108.12660662 298.25421885 108.12622959 299.24778706 108.12584114 300.27146339 C108.00248926 302.94602689 107.59879017 305.3942718 107 308 C102.48598391 308.71361914 98.49145999 308.95031613 94 308 C90.36755916 304.72852347 88.43215312 300.76765721 86.25 296.4375 C85.61860107 295.28741455 84.98720215 294.1373291 84.33666992 292.95239258 C83.0844747 290.67048968 81.8504098 288.37852768 80.63623047 286.07617188 C78.65914111 282.35917308 76.52154613 278.76932149 74.3125 275.1875 C73.6156226 274.02958621 72.9203282 272.87071835 72.2265625 271.7109375 C71.87368164 271.12280273 71.52080078 270.53466797 71.15722656 269.92871094 C69.84179687 267.73632812 68.52636719 265.54394531 67.2109375 263.3515625 C66.71819336 262.53034912 66.22544922 261.70913574 65.71777344 260.86303711 C64.6948913 259.15817915 63.67210534 257.45326348 62.64941406 255.74829102 C60.10966217 251.51443649 57.56841749 247.28149551 55.0234375 243.05078125 C49.81437074 234.3873441 44.63563837 225.70719276 39.5 217 C35.16614328 209.65445806 30.81753031 202.31811995 26.4375 195 C25.94894531 194.18144531 25.46039062 193.36289062 24.95703125 192.51953125 C24.49554687 191.74996094 24.0340625 190.98039063 23.55859375 190.1875 C22.96002563 189.18783203 22.96002563 189.18783203 22.34936523 188.16796875 C20.6295834 185.40486712 18.80532377 182.70798565 17 180 C16.67 186.6 16.34 193.2 16 200 C17.32 200.66 18.64 201.32 20 202 C32.63889931 216.46352914 38.06961228 231.78659431 37 251 C34.88148203 267.55316587 27.1346089 281.67368325 14.25 292.34375 C-1.15823928 303.68592613 -20.10410894 309.28672642 -39.2109375 306.53808594 C-40.25507813 306.35536133 -41.29921875 306.17263672 -42.375 305.984375 C-43.43460937 305.80100586 -44.49421875 305.61763672 -45.5859375 305.42871094 C-46.78089844 305.21649902 -46.78089844 305.21649902 -48 305 C-47.99111755 305.63289948 -47.98223511 306.26579895 -47.9730835 306.9178772 C-47.88383913 313.57015856 -47.82394947 320.22226691 -47.78027344 326.875 C-47.76029293 329.35000529 -47.7330991 331.8249642 -47.69824219 334.29980469 C-47.40592098 355.6048622 -48.70321234 373.7014076 -64 390 C-64.66 390 -65.32 390 -66 390 C-66 390.66 -66 391.32 -66 392 C-78.22570218 402.52842466 -93.06252595 407.09393403 -109 407 C-121.65380182 405.62400023 -134.45215196 400.77746887 -143 391 C-144.94407693 388.11123096 -146.55663543 385.16645097 -148 382 C-148.36738281 381.25363281 -148.73476563 380.50726562 -149.11328125 379.73828125 C-151.97958419 370.88683474 -150.94787316 358.35937555 -147 350 C-139.36000682 335.5274926 -127.426268 324.91468722 -111.8046875 319.78125 C-95.46753102 315.23051003 -79.93401422 316.78629218 -65 325 C-64.21625 325.391875 -63.4325 325.78375 -62.625 326.1875 C-61.820625 326.5896875 -61.820625 326.5896875 -61 327 C-61.33 326.34 -61.66 325.68 -62 325 C-62.05897883 321.61240319 -62.0208278 318.24031198 -61.9609375 314.85351562 C-61.92539808 311.62239026 -61.96992774 309.09021679 -63 306 C-62.5625 303.3125 -62.5625 303.3125 -62 301 C-63.1446875 300.690625 -63.1446875 300.690625 -64.3125 300.375 C-78.50226309 295.0839019 -92.94423848 284.59758265 -100.5625 271.265625 C-101.85811395 268.6963887 -101.85811395 268.6963887 -105 268 C-105.11472656 267.30390625 -105.22945313 266.6078125 -105.34765625 265.890625 C-106.32057292 261.57949724 -108.07800581 257.62995593 -109.74609375 253.546875 C-112.65963991 245.30544225 -113.38629753 237.59735502 -113.375 228.875 C-113.37584595 227.22600708 -113.37584595 227.22600708 -113.37670898 225.54370117 C-113.27392618 217.90351285 -112.34758959 211.23225354 -109.97265625 203.98828125 C-108.90442315 201.00582264 -108.90442315 201.00582264 -108.55859375 197.79296875 C-107.92950221 194.64751103 -107.3078838 194.07654461 -105 192 C-103.89887463 190.16850793 -102.84077411 188.31086399 -101.8125 186.4375 C-98.38619185 180.45230348 -94.44550304 175.25377632 -90 170 C-89.52046875 169.38640625 -89.0409375 168.7728125 -88.546875 168.140625 C-84.96616575 163.65444904 -80.7516901 160.16801148 -76.26953125 156.6015625 C-75.79387726 156.19656021 -75.31822327 155.79155792 -74.82815552 155.37428284 C-73 154 -73 154 -70.31222534 152.60020447 C-66.05075721 149.99996682 -62.73036505 147.65872246 -61.38171196 142.74926758 C-60.40971987 135.73400799 -60.74047608 128.64928889 -60.92578125 121.58984375 C-60.94631618 119.29345942 -60.96196549 116.99702667 -60.97294617 114.70057678 C-61.0148019 108.67739097 -61.1227231 102.65715702 -61.24468994 96.63513184 C-61.35753509 90.48177013 -61.40752332 84.32792792 -61.46289062 78.17382812 C-61.58060669 66.11459356 -61.76816369 54.05754291 -62 42 C-61.34 42 -60.68 42 -60 42 C-58.75764599 43.64753422 -57.5815609 45.34525303 -56.4375 47.0625 C-52.61076529 52.49716544 -48.47641611 56.28567148 -43 60 C-43.33 59.01 -43.66 58.02 -44 57 C-43.04742768 38.22638716 -30.35418724 17.47966524 -17 5 C-11.5642142 0.90181594 -6.89709682 -2.08214244 0 0 Z M3 27 C-3.99971814 28.16661969 -7.63252018 31.52108267 -12 37 C-17.36261262 44.63931212 -22.15391498 52.70150676 -26.0625 61.1796875 C-27 63 -27 63 -29 65 C-31.72869407 64.96712417 -34.2966618 64.43602229 -37 64 C-35.4179318 67.1641364 -32.24230751 67.90599566 -29.125 69.25 C-28.07252075 69.70644897 -28.07252075 69.70644897 -26.9987793 70.17211914 C-21.36200504 72.55189844 -15.63886695 74.57423985 -9.8125 76.4375 C-9.01150879 76.6962793 -8.21051758 76.95505859 -7.38525391 77.22167969 C-3.49132579 78.42527248 -0.12644551 79.33904662 4 79 C8.79037624 64.74514254 13.08345183 46.71210764 8 32 C5.53808608 29.14571224 5.53808608 29.14571224 3 27 Z M-48 106 C-48 115.57 -48 125.14 -48 135 C-42.41165184 131.92021904 -42.41165184 131.92021904 -37.5625 128.25 C-36.716875 127.5075 -35.87125 126.765 -35 126 C-35.20625 125.46375 -35.4125 124.9275 -35.625 124.375 C-36.13159926 121.16653804 -35.11214342 119.00932924 -34 116 C-34 115.34 -34 114.68 -34 114 C-37.80427492 111.7986134 -37.80427492 111.7986134 -42 111 C-43 110 -44 109 -45 108 C-45.66 108 -46.32 108 -47 108 C-47.33 107.34 -47.66 106.68 -48 106 Z M-30 117 C-29.67 117.99 -29.34 118.98 -29 120 C-28.01 119.67 -27.02 119.34 -26 119 C-26.33 118.34 -26.66 117.68 -27 117 C-27.99 117 -28.98 117 -30 117 Z M0.83447266 122.46826172 C-1.34216012 124.82300023 -3 126.71550692 -3 130 C-3.66 130 -4.32 130 -5 130 C-6.34054434 131.6155278 -7.68016885 133.23182608 -9.015625 134.8515625 C-13.67318164 139.89419272 -19.29756636 144.19837757 -25 148 C-25.46126322 150.51441646 -25.46126322 150.51441646 -25.40625 153.4609375 C-25.42816406 154.57339844 -25.45007813 155.68585938 -25.47265625 156.83203125 C-25.48167969 158.00121094 -25.49070312 159.17039062 -25.5 160.375 C-25.59624158 172.43269526 -27.01668222 183.25780655 -32.625 194.0625 C-32.96764893 194.73514893 -33.31029785 195.40779785 -33.66333008 196.10083008 C-37.60747267 203.55957278 -42.69884697 209.81059263 -48.76953125 215.67578125 C-51.23080187 217.70361406 -51.23080187 217.70361406 -51 220 C-52.485 220.495 -52.485 220.495 -54 221 C-58.74826214 226.77681744 -61.34862647 233.24302044 -60.875 240.75 C-59.80721435 248.75839236 -57.35715317 255.48337662 -52.3125 261.8125 C-47.85240499 267.71164276 -47.92753585 273.81569748 -48 281 C-33.10905749 284.48180702 -19.08509326 283.47099353 -5.69140625 275.65234375 C4.70880693 269.07548044 11.45785196 261.23338255 14.375 249.0625 C16.0587046 238.48157207 13.81735912 229.97678691 8 221 C5.52973101 218.08585455 2.86618652 215.52057567 0 213 C-7.19592159 206.48940428 -12.48743528 197.68721226 -14 188 C-13.56640625 185.7109375 -13.56640625 185.7109375 -13 184 C-12.08476562 184.44472656 -11.16953125 184.88945312 -10.2265625 185.34765625 C-9.03804687 185.91355469 -7.84953125 186.47945313 -6.625 187.0625 C-5.44164062 187.63097656 -4.25828125 188.19945312 -3.0390625 188.78515625 C-2.03617188 189.18605469 -1.03328125 189.58695312 0 190 C1.94729537 189.15811388 1.94729537 189.15811388 3 188 C3.08861992 185.1883662 3.11522355 182.40141745 3.09765625 179.58984375 C3.0962413 178.74780899 3.09482635 177.90577423 3.09336853 177.03822327 C3.08775263 174.33794665 3.07519748 171.63775172 3.0625 168.9375 C3.05748705 167.11132932 3.05292379 165.28515734 3.04882812 163.45898438 C3.03777804 158.97262458 3.02050279 154.48632616 3 150 C11.68946072 148.5529257 20.65926969 147.68650827 29 151 C36.07485025 157.32042619 39.97336779 166.6507052 44.04541016 175.07714844 C47.07525127 181.278082 50.73187259 187.10714053 54.3125 193 C55.63584904 195.2325779 56.95623076 197.46691769 58.2734375 199.703125 C63.87182733 209.17466897 69.54555742 218.6008839 75.22021484 228.02685547 C76.3557409 229.91337825 77.49050498 231.80035704 78.625 233.6875 C79.15275024 234.56402222 79.15275024 234.56402222 79.69116211 235.45825195 C81.73338546 238.85884131 83.74744508 242.27444457 85.7421875 245.703125 C86.20157715 246.49114502 86.6609668 247.27916504 87.13427734 248.09106445 C88.03113733 249.63195136 88.92479825 251.17470559 89.81494141 252.71948242 C90.84920089 254.49590924 91.92076797 256.25053062 93 258 C93.33 258 93.66 258 94 258 C94.09294778 246.1947356 94.16389049 234.3895592 94.20724869 222.58400249 C94.22806533 217.1013611 94.25627437 211.61897126 94.30175781 206.13647461 C94.34542726 200.83908958 94.36918159 195.54194554 94.37950897 190.2443943 C94.38686259 188.22990949 94.40122197 186.2154369 94.42292023 184.20105553 C94.5789606 169.10558482 93.73257153 157.55982856 83 146 C78.65952524 141.60915222 75.08137686 138.59274156 69 137 C68.01 136.01 68.01 136.01 67 135 C58.20400968 130.72276067 48.31600052 129.22720196 38.79443359 127.39013672 C36.13585886 126.8770955 33.47993671 126.35182858 30.82421875 125.82421875 C26.63886514 124.99718789 22.44872712 124.20019257 18.25387573 123.42285156 C16.15955639 123.02993451 14.07038424 122.61598875 11.98071289 122.19921875 C10.82563232 121.98652344 9.67055176 121.77382813 8.48046875 121.5546875 C7.49973389 121.36632324 6.51899902 121.17795898 5.50854492 120.98388672 C2.9100067 120.76816915 2.9100067 120.76816915 0.83447266 122.46826172 Z M-34 155 C-34 155.66 -34 156.32 -34 157 C-35.08970093 157.40786743 -35.08970093 157.40786743 -36.20141602 157.82397461 C-40.89082615 159.79456596 -44.76008699 162.00961302 -48 166 C-49.08430171 170.36868894 -48.85960836 174.47071705 -48.5625 178.9375 C-48.52189453 180.09830078 -48.48128906 181.25910156 -48.43945312 182.45507812 C-48.33379925 185.30773287 -48.18628025 188.15166354 -48 191 C-42.74138946 189.74344504 -37.8486593 187.89196207 -34.81640625 183.1484375 C-31.58899863 174.40818528 -32.73974082 164.16913102 -33 155 C-33.33 155 -33.66 155 -34 155 Z M-72 186 C-81.94460442 196.04134181 -88.94098545 208.70330355 -90 223 C-90.06316406 223.68707031 -90.12632812 224.37414062 -90.19140625 225.08203125 C-90.95538537 239.94265732 -85.13728469 254.18013312 -75.6875 265.375 C-71.62857902 269.71003805 -67.40009872 272.57442374 -62 275 C-60.4603728 273.4603728 -60.60641533 272.09027201 -60.4375 269.9375 C-60.4484267 262.37622306 -64.5691631 256.19997701 -68.08740234 249.74072266 C-73.11487964 240.15112578 -73.05913468 230.05945842 -70.0625 219.859375 C-68.22283884 214.90852217 -65.7935615 208.7935615 -62 205 C-61.75795937 202.18216892 -61.5742591 199.38585926 -61.4375 196.5625 C-61.37381226 195.33974365 -61.37381226 195.33974365 -61.30883789 194.09228516 C-61.02698248 188.38825746 -60.90787967 182.71146041 -61 177 C-64.46964583 177 -69.5774065 183.70320883 -72 186 Z " fill="#23B9BD" transform="translate(524,244)"/>
<path d="M0 0 C3.96 0.99 7.92 1.98 12 3 C12.11374034 10.46801556 12.20513626 17.93570019 12.25906086 25.40437603 C12.28496491 28.8738384 12.32000073 32.3426688 12.37719727 35.81176758 C12.44279015 39.81597349 12.46633833 43.81953379 12.48828125 47.82421875 C12.51408768 49.04767502 12.5398941 50.27113129 12.56648254 51.53166199 C12.57046851 63.98855917 8.45256462 74.12483862 1 84 C0.2575 85.010625 -0.485 86.02125 -1.25 87.0625 C-1.8275 87.701875 -2.405 88.34125 -3 89 C-3.66 89 -4.32 89 -5 89 C-5 89.66 -5 90.32 -5 91 C-17.22570218 101.52842466 -32.06252595 106.09393403 -48 106 C-60.65380182 104.62400023 -73.45215196 99.77746887 -82 90 C-83.94407693 87.11123096 -85.55663543 84.16645097 -87 81 C-87.36738281 80.25363281 -87.73476563 79.50726562 -88.11328125 78.73828125 C-90.97958419 69.88683474 -89.94787316 57.35937555 -86 49 C-78.36000682 34.5274926 -66.426268 23.91468722 -50.8046875 18.78125 C-34.46753102 14.23051003 -18.93401422 15.78629218 -4 24 C-3.21625 24.391875 -2.4325 24.78375 -1.625 25.1875 C-1.08875 25.455625 -0.5525 25.72375 0 26 C-0.495 25.01 -0.495 25.01 -1 24 C-1.33815726 15.95384637 -1.11962558 7.97733229 0 0 Z " fill="#112967" transform="translate(463,545)"/>
<path d="M0 0 C25.26300894 2.76257364 54.2726078 11.87628636 71.3046875 31.6796875 C88.14389384 52.93573485 87.21825593 78.23572714 87 104 C83.60740986 102.86913662 82.66962898 101.79067537 80.375 99.125 C79.76398438 98.42632812 79.15296875 97.72765625 78.5234375 97.0078125 C77 95 77 95 76 92 C75.34 92 74.68 92 74 92 C73.90203125 91.40574219 73.8040625 90.81148438 73.703125 90.19921875 C71.07172219 75.61308077 66.00548046 65.50968873 54.2109375 56.3125 C51.79236812 54.8767415 49.73793125 54.52329061 47 54 C46.67 53.34 46.34 52.68 46 52 C36.58065566 47.16596952 25.35158559 45.85493348 15.0625 43.875 C13.28695841 43.52550566 11.51156651 43.17524998 9.73632812 42.82421875 C0.8465569 41.07586915 -8.04829458 39.40485877 -17 38 C-17 34.33113691 -16.1598058 33.65021357 -13.9375 30.8125 C-7.33189195 21.67451889 -3.25904964 10.73569292 0 0 Z " fill="#122A66" transform="translate(545,328)"/>
<path d="M0 0 C0.66 0 1.32 0 2 0 C3.15248571 1.59109576 4.24549121 3.22536329 5.3125 4.875 C18.35722085 23.1188735 40.35698946 29.88573466 60.82373047 36.27905273 C63 37 63 37 65 38 C62.07434768 48.97119621 55.50343763 57.4108245 48.3125 66 C47.86132812 66.53979492 47.41015625 67.07958984 46.9453125 67.63574219 C44.21573906 70.81557517 41.44227906 73.59961477 38 76 C32.8597304 76.11954115 28.67825032 73.4491895 24.26953125 71.05859375 C21.96424774 69.78864266 21.96424774 69.78864266 19 70 C19 69.01 19 68.02 19 67 C17.68 66.67 16.36 66.34 15 66 C15.02731201 66.80107178 15.05462402 67.60214355 15.08276367 68.42749023 C15.69674052 92.79128791 15.69674052 92.79128791 11.5546875 97.86328125 C5.11487316 103 5.11487316 103 1 103 C0.24322026 89.32406599 -0.14048386 75.70735772 -0.09765625 62.01171875 C-0.09578314 60.20327291 -0.09436348 58.39482654 -0.09336853 56.58638 C-0.0896135 51.90622469 -0.07984636 47.22610215 -0.06866455 42.54595947 C-0.05829641 37.73832645 -0.05383848 32.93068794 -0.04882812 28.12304688 C-0.03821513 18.74868379 -0.02122711 9.37434466 0 0 Z " fill="#122965" transform="translate(462,286)"/>
<path d="M0 0 C0.12564518 4.03417692 0.21527462 8.0675633 0.2746582 12.10327148 C0.29946716 13.46968471 0.33332712 14.83597019 0.37719727 16.2019043 C0.69113697 26.24428128 -0.72253516 33.91304342 -5 43 C-5.43586426 43.96268799 -5.87172852 44.92537598 -6.32080078 45.91723633 C-10.13324013 54.06543745 -16.35876905 60.00929601 -22.50244141 66.41650391 C-28.57135506 72.83368257 -33.74780413 79.25650174 -34.08984375 88.40234375 C-33.58997411 96.51561258 -31.34421657 104.67008028 -25.75 110.6875 C-21.06523213 116.27861743 -22.55168858 124.15909987 -23 131 C-31.95817271 129.54664611 -31.95817271 129.54664611 -35 127 C-35.31640625 124.47265625 -35.31640625 124.47265625 -35.375 121.3125 C-35.5920845 112.90283524 -39.14107014 106.8805185 -43.10351562 99.69238281 C-48.15470252 90.1567544 -48.0441843 80.00856962 -45.0625 69.859375 C-43.22283884 64.90852217 -40.7935615 58.7935615 -37 55 C-36.91724799 52.88669912 -36.8905708 50.77116695 -36.88671875 48.65625 C-36.8360632 46.63797395 -36.78522863 44.61969787 -36.72924805 42.6015625 C-36.7017055 41.21509341 -36.6931576 39.82809972 -36.70483398 38.44140625 C-36.7708036 27.21849384 -36.7708036 27.21849384 -33.75982666 23.44628906 C-25.87114268 16 -25.87114268 16 -22 16 C-22 24.25 -22 32.5 -22 41 C-20.246875 40.21625 -18.49375 39.4325 -16.6875 38.625 C-15.70136719 38.18414062 -14.71523438 37.74328125 -13.69921875 37.2890625 C-9.0945995 33.38413214 -8.27614394 28.14357511 -7.76147461 22.28466797 C-7.63032135 18.63012676 -7.61779655 14.9846115 -7.6484375 11.328125 C-7.53106467 4.57918703 -7.53106467 4.57918703 -4.5859375 1.3671875 C-2 0 -2 0 0 0 Z " fill="#132964" transform="translate(498,394)"/>
<path d="M0 0 C5.00227972 1.71320852 7.4057195 5.93479956 10.37841797 10.10888672 C12.98712778 13.68684809 15.79624777 17.10708489 18.578125 20.55078125 C19.41790894 21.61727905 19.41790894 21.61727905 20.2746582 22.70532227 C20.80534912 23.36846436 21.33604004 24.03160645 21.8828125 24.71484375 C22.59026611 25.60743896 22.59026611 25.60743896 23.31201172 26.51806641 C24.7606619 28.19635523 24.7606619 28.19635523 27.703125 28.92578125 C28.033125 19.68578125 28.363125 10.44578125 28.703125 0.92578125 C33.703125 -0.07421875 33.703125 -0.07421875 41.703125 0.92578125 C41.703125 18.74578125 41.703125 36.56578125 41.703125 54.92578125 C29.703125 54.92578125 29.703125 54.92578125 26.66015625 52.46875 C25.95246094 51.36144531 25.24476563 50.25414062 24.515625 49.11328125 C23.71173658 47.92175679 22.90570154 46.73167811 22.09765625 45.54296875 C21.70529785 44.93936523 21.31293945 44.33576172 20.90869141 43.71386719 C19.01266231 40.90169281 16.87180386 38.34622999 14.703125 35.73828125 C13.98125 34.85785156 13.259375 33.97742188 12.515625 33.0703125 C10.72974217 30.89665486 10.72974217 30.89665486 8.703125 28.92578125 C5.703125 25.23347356 5.703125 25.23347356 5.703125 22.92578125 C5.043125 22.92578125 4.383125 22.92578125 3.703125 22.92578125 C3.373125 33.48578125 3.043125 44.04578125 2.703125 54.92578125 C-1.256875 54.92578125 -5.216875 54.92578125 -9.296875 54.92578125 C-9.46726165 49.80722734 -9.62745533 44.68848085 -9.77905273 39.56933594 C-9.83173305 37.83552917 -9.88698268 36.10179816 -9.94506836 34.36816406 C-10.73601898 10.62588984 -10.73601898 10.62588984 -9.296875 0.92578125 C-6.14792986 -0.64869132 -3.45334762 -0.40946836 0 0 Z " fill="#24BABE" transform="translate(596.296875,682.07421875)"/>
<path d="M0 0 C0.639375 0.61875 1.27875 1.2375 1.9375 1.875 C2.69933594 1.35099609 2.69933594 1.35099609 3.4765625 0.81640625 C9.05651972 -2.87221716 13.23518129 -4.80238566 20 -3.5 C24.69313015 -2.17192493 27.37805237 0.52529634 30.05810547 4.56347656 C31.30778323 7.84830416 31.18378136 11.02217217 31.1328125 14.484375 C31.1299826 15.21118469 31.12715271 15.93799438 31.12423706 16.68682861 C31.11307523 18.99972251 31.08797851 21.31222388 31.0625 23.625 C31.05246501 25.19660898 31.04334006 26.76822404 31.03515625 28.33984375 C31.01314904 32.18504622 30.97864715 36.02995664 30.9375 39.875 C26.9775 39.875 23.0175 39.875 18.9375 39.875 C18.94910156 38.13992188 18.96070313 36.40484375 18.97265625 34.6171875 C18.98203765 32.32812608 18.99113748 30.03906349 19 27.75 C19.01256836 26.03683594 19.01256836 26.03683594 19.02539062 24.2890625 C19.02861328 23.18046875 19.03183594 22.071875 19.03515625 20.9296875 C19.04039307 19.91374512 19.04562988 18.89780273 19.05102539 17.85107422 C18.93402309 14.78385274 18.50526417 11.88866866 17.9375 8.875 C13.6108659 7.86880602 10.81278323 7.50677136 6.9375 9.875 C5.03274431 13.61156856 4.69952247 16.67219063 4.7421875 20.83203125 C4.75185547 22.49975586 4.75185547 22.49975586 4.76171875 24.20117188 C4.77847656 25.35166016 4.79523438 26.50214844 4.8125 27.6875 C4.82152344 28.85732422 4.83054687 30.02714844 4.83984375 31.23242188 C4.86336169 34.11336916 4.89923121 36.99421089 4.9375 39.875 C0.6475 39.875 -3.6425 39.875 -8.0625 39.875 C-8.03929687 38.13992188 -8.01609375 36.40484375 -7.9921875 34.6171875 C-7.97342473 32.32812931 -7.95522507 30.03906646 -7.9375 27.75 C-7.92074219 26.60789062 -7.90398437 25.46578125 -7.88671875 24.2890625 C-7.88027344 23.18046875 -7.87382812 22.071875 -7.8671875 20.9296875 C-7.85671387 19.91374512 -7.84624023 18.89780273 -7.83544922 17.85107422 C-8.08408182 14.59211571 -8.91371636 11.92384793 -10.0625 8.875 C-13.62736048 7.96305895 -15.45881501 7.60669556 -18.875 9.125 C-21.326409 10.76130821 -21.326409 10.76130821 -22.0625 13.875 C-22.21236411 15.8656444 -22.31078038 17.86035391 -22.37890625 19.85546875 C-22.42080078 21.01884766 -22.46269531 22.18222656 -22.50585938 23.38085938 C-22.54517578 24.59580078 -22.58449219 25.81074219 -22.625 27.0625 C-22.66818359 28.28904297 -22.71136719 29.51558594 -22.75585938 30.77929688 C-22.86203014 33.81106192 -22.96277764 36.843016 -23.0625 39.875 C-27.0225 39.875 -30.9825 39.875 -35.0625 39.875 C-35.0625 26.015 -35.0625 12.155 -35.0625 -2.125 C-26.0625 -3.125 -26.0625 -3.125 -23.5 -1.6875 C-23.025625 -1.171875 -22.55125 -0.65625 -22.0625 -0.125 C-20.9796875 -0.8365625 -20.9796875 -0.8365625 -19.875 -1.5625 C-13.10674549 -5.3226414 -6.29169928 -4.36566889 0 0 Z " fill="#122A66" transform="translate(384.0625,697.125)"/>
<path d="M0 0 C3.875 0.875 3.875 0.875 5 2 C5.09353163 3.68801985 5.11744791 5.37995207 5.11352539 7.07055664 C5.11344986 8.15160172 5.11337433 9.23264679 5.11329651 10.34645081 C5.10813522 11.5224736 5.10297394 12.6984964 5.09765625 13.91015625 C5.0962413 15.10732773 5.09482635 16.30449921 5.09336853 17.53794861 C5.08774979 21.37949066 5.07519411 25.22097543 5.0625 29.0625 C5.05748741 31.65950437 5.05292409 34.25650965 5.04882812 36.85351562 C5.03777427 43.23569932 5.02049708 49.61783993 5 56 C0.71 56 -3.58 56 -8 56 C-8 48.74 -8 41.48 -8 34 C-15.92 34 -23.84 34 -32 34 C-32 41.26 -32 48.52 -32 56 C-35.96 56 -39.92 56 -44 56 C-45.40027356 16.94157589 -45.40027356 16.94157589 -44 1 C-40.04 1.33 -36.08 1.66 -32 2 C-32 8.6 -32 15.2 -32 22 C-23.75 22 -15.5 22 -7 22 C-7.495 18.535 -7.495 18.535 -8 15 C-8.06400078 12.68829193 -8.08633991 10.37497096 -8.0625 8.0625 C-8.05347656 6.91910156 -8.04445312 5.77570312 -8.03515625 4.59765625 C-8.02355469 3.74042969 -8.01195312 2.88320313 -8 2 C-5.36 2 -2.72 2 0 2 C0 1.34 0 0.68 0 0 Z " fill="#132A65" transform="translate(256,681)"/>
<path d="M0 0 C0.99 0 1.98 0 3 0 C3.67869141 1.55654297 3.67869141 1.55654297 4.37109375 3.14453125 C12.39215545 21.32965548 21.11174262 39.22348524 30 57 C30.13415472 59.6723621 30.04318541 62.32250488 30 65 C21.91384979 66.17244526 13.860185 66.15205139 5.70922852 66.13037109 C3.33538305 66.12505128 0.96173004 66.1303196 -1.41210938 66.13671875 C-21.66933772 66.14886068 -21.66933772 66.14886068 -29 65 C-29.66 64.34 -30.32 63.68 -31 63 C-24.70912181 47.20200685 -17.63583564 31.87925902 -9.75 16.8125 C-9.34998779 16.04695801 -8.94997559 15.28141602 -8.5378418 14.49267578 C-6.56403064 10.76913644 -4.52541731 7.08299266 -2.390625 3.44921875 C-2.00422852 2.78623779 -1.61783203 2.12325684 -1.21972656 1.44018555 C-0.8172168 0.96492432 -0.41470703 0.48966309 0 0 Z M0 21 C-4.64840836 29.51681169 -9.17224511 38.0431445 -13.0625 46.9375 C-13.5102478 47.95650391 -13.5102478 47.95650391 -13.96704102 48.99609375 C-15.4951546 52.37620419 -15.4951546 52.37620419 -16 56 C-5.44 56 5.12 56 16 56 C14.31400326 49.10329361 14.31400326 49.10329361 11.72265625 42.8359375 C11.07586914 41.49402344 11.07586914 41.49402344 10.41601562 40.125 C9.96935547 39.2175 9.52269531 38.31 9.0625 37.375 C8.61970703 36.45976562 8.17691406 35.54453125 7.72070312 34.6015625 C5.51434226 30.05073771 3.27375729 25.51749798 1 21 C0.67 21 0.34 21 0 21 Z " fill="#122963" transform="translate(500,430)"/>
<path d="M0 0 C4.36757811 3.59255501 7.13066706 6.99097804 8.61328125 12.55078125 C8.6805721 14.46116837 8.69846893 16.37371903 8.67578125 18.28515625 C8.66675781 19.27225586 8.65773438 20.25935547 8.6484375 21.27636719 C8.63683594 22.02692383 8.62523437 22.77748047 8.61328125 23.55078125 C7.8769043 23.54554443 7.14052734 23.54030762 6.38183594 23.53491211 C3.0423264 23.51411258 -0.29716949 23.50111157 -3.63671875 23.48828125 C-4.79558594 23.47990234 -5.95445312 23.47152344 -7.1484375 23.46289062 C-8.26347656 23.45966797 -9.37851562 23.45644531 -10.52734375 23.453125 C-11.55375977 23.44788818 -12.58017578 23.44265137 -13.63769531 23.43725586 C-16.06297531 23.53741174 -18.07369236 23.85155047 -20.38671875 24.55078125 C-18.11912237 27.57424309 -16.79435849 29.29232936 -13.00390625 29.98828125 C-7.76519701 30.11338475 -4.82259286 29.42105274 -0.38671875 26.55078125 C2.56766953 27.41971898 4.79502538 29.06264164 6.61328125 31.55078125 C6.61328125 33.48828125 6.61328125 33.48828125 5.61328125 35.55078125 C1.0924448 39.94245095 -3.47773599 41.61442194 -9.69921875 41.86328125 C-17.49234612 41.65336536 -23.94348527 39.24718838 -29.38671875 33.55078125 C-33.93091033 27.46354642 -34.37117565 20.93918 -33.38671875 13.55078125 C-31.3585331 6.96731231 -27.3372096 2.27190091 -21.38671875 -1.19921875 C-14.22792345 -4.18205013 -6.76396455 -4.10708813 0 0 Z M-19.38671875 9.55078125 C-20.04671875 11.20078125 -20.70671875 12.85078125 -21.38671875 14.55078125 C-15.44671875 14.55078125 -9.50671875 14.55078125 -3.38671875 14.55078125 C-4.83546625 9.47251871 -4.83546625 9.47251871 -8.38671875 7.73828125 C-13.10741718 5.86967146 -15.0763889 6.94662363 -19.38671875 9.55078125 Z " fill="#23BCBE" transform="translate(760.38671875,696.44921875)"/>
<path d="M0 0 C4.24083085 1.91191447 7.00214863 4.29803936 9.54296875 8.26171875 C13.00321785 18.64246606 11.66132386 31.39934956 11.54296875 42.26171875 C7.58296875 42.26171875 3.62296875 42.26171875 -0.45703125 42.26171875 C-0.78703125 41.27171875 -1.11703125 40.28171875 -1.45703125 39.26171875 C-1.89015625 39.73609375 -2.32328125 40.21046875 -2.76953125 40.69921875 C-6.2184422 43.89265481 -10.36988107 43.60016393 -14.81640625 43.53515625 C-18.9784424 43.10417618 -22.19257405 41.8950995 -25.45703125 39.26171875 C-28.13494871 35.24484256 -28.75921059 32.31616387 -28.01953125 27.63671875 C-26.98320676 24.03717747 -25.64675358 21.44463721 -22.5 19.19140625 C-16.63824297 16.52391452 -9.82070467 16.13327764 -3.45703125 16.26171875 C-3.12703125 14.61171875 -2.79703125 12.96171875 -2.45703125 11.26171875 C-4.10703125 11.26171875 -5.75703125 11.26171875 -7.45703125 11.26171875 C-7.45703125 10.60171875 -7.45703125 9.94171875 -7.45703125 9.26171875 C-8.2046875 9.46667969 -8.95234375 9.67164063 -9.72265625 9.8828125 C-11.19992187 10.28693359 -11.19992187 10.28693359 -12.70703125 10.69921875 C-13.6815625 10.96605469 -14.65609375 11.23289062 -15.66015625 11.5078125 C-17.92075778 12.11716459 -20.18325134 12.7041013 -22.45703125 13.26171875 C-25.45703125 8.51171875 -25.45703125 8.51171875 -25.45703125 6.26171875 C-26.11703125 5.93171875 -26.77703125 5.60171875 -27.45703125 5.26171875 C-18.5659185 -0.12100897 -10.32667437 -3.10292759 0 0 Z M-2.45703125 13.26171875 C-1.45703125 16.26171875 -1.45703125 16.26171875 -1.45703125 16.26171875 Z M-14.45703125 26.26171875 C-15.11703125 26.92171875 -15.77703125 27.58171875 -16.45703125 28.26171875 C-16.13851355 30.36992672 -16.13851355 30.36992672 -15.45703125 32.26171875 C-10.62689783 34.02911715 -10.62689783 34.02911715 -5.64453125 33.51171875 C-3.34465819 32.3247573 -3.34465819 32.3247573 -1.45703125 30.26171875 C-0.80935332 27.69110564 -0.80935332 27.69110564 -0.45703125 25.26171875 C-5.81122976 23.92316912 -9.30060715 24.62885112 -14.45703125 26.26171875 Z " fill="#132B66" transform="translate(296.45703125,694.73828125)"/>
<path d="M0 0 C3.63 0 7.26 0 11 0 C14.07003827 5.86839174 16.51967563 11.76849286 18.75 18 C19.06582031 18.87011719 19.38164063 19.74023438 19.70703125 20.63671875 C20.47566927 22.75629631 21.23989655 24.87735024 22 27 C24.73889596 20.42406175 27.12498733 13.80062765 29.2487793 7.00366211 C30.18590877 4.0829609 30.79818764 2.20181236 33 0 C35.6015625 -0.1953125 35.6015625 -0.1953125 38.625 -0.125 C40.12933594 -0.09792969 40.12933594 -0.09792969 41.6640625 -0.0703125 C42.43492187 -0.04710937 43.20578125 -0.02390625 44 0 C45 2 45 2 44.23071289 4.38818359 C43.8155542 5.38156738 43.40039551 6.37495117 42.97265625 7.3984375 C42.28441772 9.06386597 42.28441772 9.06386597 41.58227539 10.76293945 C41.08074951 11.95491943 40.57922363 13.14689941 40.0625 14.375 C39.29772862 16.21600749 38.53296388 18.05701811 37.76951599 19.89857483 C37.2551136 21.13881796 36.73977831 22.37867456 36.223526 23.6181488 C34.64862748 27.40548614 33.11690312 31.20660051 31.625 35.02734375 C31.27300537 35.92727051 30.92101074 36.82719727 30.55834961 37.75439453 C29.91346353 39.41095651 29.27333749 41.06938268 28.63891602 42.72998047 C25.92681964 49.65050226 23.00088332 55.69049152 16 59 C10.79282274 59.60460694 5.50722045 60.03880474 1 57 C-0.478746 52.563762 1.25166322 50.26594174 3 46 C6.3 46.33 9.6 46.66 13 47 C14.97415785 43.57503487 15.06822176 42.25405784 14.0234375 38.36328125 C13.49119084 37.0061357 12.94080222 35.65600229 12.375 34.3125 C11.95420166 33.25554932 11.95420166 33.25554932 11.52490234 32.17724609 C10.69917041 30.11126196 9.85225209 28.05515971 9 26 C8.20645409 24.04242741 7.41441693 22.0842413 6.625 20.125 C6.30789063 19.36445312 5.99078125 18.60390625 5.6640625 17.8203125 C5 16 5 16 5 14 C4.34 13.67 3.68 13.34 3 13 C2.1484375 11.07421875 2.1484375 11.07421875 1.375 8.6875 C0.98441406 7.51767578 0.98441406 7.51767578 0.5859375 6.32421875 C0 4 0 4 0 0 Z " fill="#142C65" transform="translate(519,694)"/>
<path d="M0 0 C5.91432252 6.27510908 7.442389 11.52422523 7.33984375 20.046875 C6.68779384 25.71296391 4.38691719 30.6352867 0.3203125 34.6640625 C-5.1313417 38.80731969 -10.80748225 40.46647244 -17.62109375 40.328125 C-22.97505693 39.58964732 -27.56132856 36.95911429 -32 34 C-32 33.34 -32 32.68 -32 32 C-32.66 32 -33.32 32 -34 32 C-38.16026343 24.3109417 -39.42585502 17.86468182 -36.9375 9.375 C-33.44267916 3.28724757 -30.04487182 -1.70123517 -23.1875 -4.0625 C-15.11085206 -5.9499109 -6.75380116 -5.07619745 0 0 Z M-25 11 C-26.50650776 15.51952327 -26.74563919 19.35959378 -24.75 23.75 C-21.66825479 27.71224384 -20.18333403 28.84973536 -15.0625 29.5 C-11.5467288 29.38193306 -10.99672377 28.99735113 -8.0625 26.625 C-4.79596441 22.46759107 -4.61060535 19.67777509 -4.640625 14.484375 C-4.83608381 11.69134224 -4.83608381 11.69134224 -7.375 8.9375 C-14.17074763 3.92159103 -19.40733161 5.27417284 -25 11 Z " fill="#23BABC" transform="translate(682,698)"/>
<path d="M0 0 C0.70253906 0.11730469 1.40507812 0.23460937 2.12890625 0.35546875 C6.50049347 1.86133909 9.01946123 7.10817985 11.05078125 11.02734375 C13.7102218 17.3923555 13.95385572 23.12794501 11.5 29.5625 C8.59061174 35.52571423 4.00917549 39.49541225 -1.875 42.4375 C-10.93684255 44.06863166 -17.41620532 43.05586312 -25.1875 37.875 C-29.45256659 34.04444421 -31.52063 29.11590501 -32.3828125 23.51171875 C-32.70832506 16.5348996 -30.99290345 10.63594106 -26.52734375 5.2109375 C-18.67461893 -2.32619317 -10.06663416 -2.63726518 0 0 Z M-18 12 C-20.7286912 16.43892723 -20.772961 20.93989448 -20 26 C-18.27327055 29.69801715 -15.98957192 31.63428864 -12.125 33.0625 C-8.02068933 32.98041379 -5.5431282 32.07239574 -2 30 C1.01244492 25.72427173 1.64556191 22.16449529 1 17 C-1.02666238 13.29609979 -2.48044516 11.34636989 -6 9 C-10.96495273 8.54028216 -14.06167696 8.84934157 -18 12 Z " fill="#132A65" transform="translate(454,695)"/>
<path d="M0 0 C2.475 0.495 2.475 0.495 5 1 C6.9996441 1.03772913 9.00054061 1.04649906 11 1 C11.66 2.32 12.32 3.64 13 5 C14.051875 4.360625 15.10375 3.72125 16.1875 3.0625 C20.70037077 0.52626663 23.87082982 -0.37668297 29 0.6875 C33.38862106 1.92128215 36.74806489 3.84061449 39.09399414 7.88696289 C42.1871395 15.10096803 41.12013553 24.37924061 41.0625 32.0625 C41.05798828 33.21427734 41.05347656 34.36605469 41.04882812 35.55273438 C41.03714426 38.36854518 41.02076281 41.18424398 41 44 C38.37684968 45.31157516 36.76966564 44.89649988 33.875 44.5625 C32.96492188 44.46066406 32.05484375 44.35882812 31.1171875 44.25390625 C30.41851562 44.17011719 29.71984375 44.08632813 29 44 C28.98018066 43.20303711 28.96036133 42.40607422 28.93994141 41.58496094 C28.84466752 37.97297528 28.73499693 34.36156601 28.625 30.75 C28.5940625 29.49574219 28.563125 28.24148438 28.53125 26.94921875 C28.49257813 25.74394531 28.45390625 24.53867187 28.4140625 23.296875 C28.3826416 22.18666992 28.3512207 21.07646484 28.31884766 19.93261719 C28.00823803 17.07576972 27.6310903 15.35070933 26 13 C22.0368361 11.85508598 18.96501494 11.95043722 15 13 C12.63903491 19.47871129 12.76946435 25.59797835 12.875 32.4375 C12.88853516 34.1071582 12.88853516 34.1071582 12.90234375 35.81054688 C12.92577646 38.54045809 12.96164297 41.27025769 13 44 C9.04 44 5.08 44 1 44 C0.67 29.48 0.34 14.96 0 0 Z " fill="#122963" transform="translate(473,693)"/>
<path d="M0 0 C8.49609375 -0.09765625 8.49609375 -0.09765625 11 0 C12 1 12 1 12.09765625 4.16015625 C12.08605469 5.44792969 12.07445312 6.73570312 12.0625 8.0625 C12.05347656 9.35285156 12.04445313 10.64320313 12.03515625 11.97265625 C12.02355469 12.97167969 12.01195312 13.97070312 12 15 C13.14339844 14.98839844 14.28679688 14.97679687 15.46484375 14.96484375 C16.95572754 14.95546712 18.44661309 14.94636679 19.9375 14.9375 C21.06961914 14.92493164 21.06961914 14.92493164 22.22460938 14.91210938 C24.14994313 14.90347559 26.07535581 14.94775667 28 15 C29.73849628 16.73849628 29.17216296 19.0786637 29.1875 21.4375 C29.20167969 22.42621094 29.21585938 23.41492188 29.23046875 24.43359375 C29 27 29 27 27 29 C22.32380812 29.28034724 17.68783389 29.08523334 13 29 C12.67 33.95 12.34 38.9 12 44 C7.31489886 45.87404046 4.88523811 46.19157797 0 46 C-1.22325331 43.55349339 -1.13318057 41.91572149 -1.125 39.1875 C-1.12886719 37.90939453 -1.12886719 37.90939453 -1.1328125 36.60546875 C-1 34 -1 34 0 29 C-5.61 29 -11.22 29 -17 29 C-17 23.72 -17 18.44 -17 13 C-16.67 13.66 -16.34 14.32 -16 15 C-10.72 15 -5.44 15 0 15 C0 10.05 0 5.1 0 0 Z " fill="#25BEC1" transform="translate(500,556)"/>
<path d="M0 0 C-0.55728913 3.34373475 -1.35173889 6.03312999 -3 9 C-3.99 9 -4.98 9 -6 9 C-6 8.34 -6 7.68 -6 7 C-7.60226955 6.77754607 -9.20696767 6.57253331 -10.8125 6.375 C-11.70582031 6.25898437 -12.59914063 6.14296875 -13.51953125 6.0234375 C-16.25690391 5.76499257 -16.25690391 5.76499257 -19 8 C-19 8.66 -19 9.32 -19 10 C-17.98679687 10.27972656 -16.97359375 10.55945313 -15.9296875 10.84765625 C-2.37587628 14.80985106 -2.37587628 14.80985106 1.23828125 20.04296875 C2.73230784 23.88146784 2.31402858 27.16275698 1 31 C-1.85625351 35.67386938 -4.78542497 37.93186282 -9.90625 39.52734375 C-17.43143477 41.22612613 -24.22354781 39.54696367 -31 36 C-32.82421875 33.859375 -32.82421875 33.859375 -34 32 C-32.35 29.36 -30.7 26.72 -29 24 C-27.2675 24.99 -27.2675 24.99 -25.5 26 C-21.09695489 28.23297288 -17.87984024 28.34856002 -13 28 C-13.00974539 26.0521121 -13.00974539 26.0521121 -14 24 C-16.86457246 22.55162197 -16.86457246 22.55162197 -20.3125 21.5 C-24.8519386 19.99532606 -28.02360476 18.8409672 -31 15 C-32.41481158 10.74783405 -32.28506322 6.9442719 -31 2.6875 C-27.82402252 -1.58021974 -24.18527994 -3.38242089 -19.125 -4.8125 C-11.57300515 -5.26561969 -6.33583169 -4.17895282 0 0 Z M-11 25 C-10 28 -10 28 -10 28 Z " fill="#24BBBD" transform="translate(806,698)"/>
<path d="M0 0 C0.33 3.96 0.66 7.92 1 12 C2.629375 11.979375 4.25875 11.95875 5.9375 11.9375 C7.62499341 11.91613932 9.31391034 11.92794489 11 12 C12 13 12 13 12.1328125 15.03125 C12.13023437 15.8459375 12.12765625 16.660625 12.125 17.5 C12.12886719 18.72203125 12.12886719 18.72203125 12.1328125 19.96875 C12 22 12 22 11 23 C9.14712498 23.07226502 7.29166122 23.0838122 5.4375 23.0625 C4.42558594 23.05347656 3.41367187 23.04445313 2.37109375 23.03515625 C1.19740234 23.01775391 1.19740234 23.01775391 0 23 C-0.12109311 30.07721931 0.14626761 36.97195301 1 44 C4.65381163 44.08304117 7.41220825 43.89694794 11 43 C12.485 47.455 12.485 47.455 14 52 C9.07802775 56.19279118 4.32570975 56.33887731 -2 56 C-5.90745289 55.06965407 -8.5200384 53.21241918 -11 50.01171875 C-13.15247802 45.68153837 -12.83836027 40.74328993 -13 36 C-13.17763728 33.58258836 -13.36491036 31.16586265 -13.5625 28.75 C-13.70872231 26.83336297 -13.85470122 24.91670726 -14 23 C-15.65 22.67 -17.3 22.34 -19 22 C-20.23076923 16.58461538 -20.23076923 16.58461538 -19.0625 13.625 C-18.711875 13.08875 -18.36125 12.5525 -18 12 C-16.35 12 -14.7 12 -13 12 C-13.20625 10.72125 -13.4125 9.4425 -13.625 8.125 C-13.9765625 5.9453125 -13.9765625 5.9453125 -14 4 C-10.13023259 0.13023259 -5.26279551 0 0 0 Z " fill="#23BFC1" transform="translate(710,682)"/>
<path d="M0 0 C-0.33 3.63 -0.66 7.26 -1 11 C-2.65 11.33 -4.3 11.66 -6 12 C-11.35202149 13.88279585 -11.35202149 13.88279585 -15 18 C-15.36798693 20.71075544 -15.36798693 20.71075544 -15.4140625 23.76171875 C-15.47207031 25.43911133 -15.47207031 25.43911133 -15.53125 27.15039062 C-15.5621875 28.31763672 -15.593125 29.48488281 -15.625 30.6875 C-15.68300781 32.45577148 -15.68300781 32.45577148 -15.7421875 34.25976562 C-15.83654057 37.17291668 -15.91936242 40.08643703 -16 43 C-19.96 43 -23.92 43 -28 43 C-28 29.14 -28 15.28 -28 1 C-24.0526448 0.21052896 -20.95712151 -0.09202608 -17 0 C-16.34 1.32 -15.68 2.64 -15 4 C-14.13375 3.360625 -13.2675 2.72125 -12.375 2.0625 C-8.00234341 -0.60967903 -4.92089662 -1.64029887 0 0 Z " fill="#142B66" transform="translate(344,694)"/>
<path d="M0 0 C0.33 3.96 0.66 7.92 1 12 C2.629375 11.979375 4.25875 11.95875 5.9375 11.9375 C7.62499341 11.91613932 9.31391034 11.92794489 11 12 C12 13 12 13 12.1328125 15.03125 C12.13023437 15.8459375 12.12765625 16.660625 12.125 17.5 C12.12886719 18.72203125 12.12886719 18.72203125 12.1328125 19.96875 C12 22 12 22 11 23 C9.14712498 23.07226502 7.29166122 23.0838122 5.4375 23.0625 C4.42558594 23.05347656 3.41367187 23.04445313 2.37109375 23.03515625 C1.19740234 23.01775391 1.19740234 23.01775391 0 23 C-0.12109311 30.07721931 0.14626761 36.97195301 1 44 C4.65381163 44.08304117 7.41220825 43.89694794 11 43 C12.485 47.455 12.485 47.455 14 52 C9.07802775 56.19279118 4.32570975 56.33887731 -2 56 C-5.90745289 55.06965407 -8.5200384 53.21241918 -11 50.01171875 C-13.15247802 45.68153837 -12.83836027 40.74328993 -13 36 C-13.17763728 33.58258836 -13.36491036 31.16586265 -13.5625 28.75 C-13.70872231 26.83336297 -13.85470122 24.91670726 -14 23 C-15.65 22.67 -17.3 22.34 -19 22 C-20.23076923 16.58461538 -20.23076923 16.58461538 -19.0625 13.625 C-18.711875 13.08875 -18.36125 12.5525 -18 12 C-16.35 12 -14.7 12 -13 12 C-13.20625 10.72125 -13.4125 9.4425 -13.625 8.125 C-13.9765625 5.9453125 -13.9765625 5.9453125 -14 4 C-10.13023259 0.13023259 -5.26279551 0 0 0 Z M-11 4 C-11.33 6.97 -11.66 9.94 -12 13 C-13.65 13.33 -15.3 13.66 -17 14 C-17.33 16.31 -17.66 18.62 -18 21 C-15.69 21 -13.38 21 -11 21 C-11.02094727 21.72590332 -11.04189453 22.45180664 -11.06347656 23.19970703 C-11.1469365 26.50799555 -11.19875539 29.81606211 -11.25 33.125 C-11.28351562 34.26710938 -11.31703125 35.40921875 -11.3515625 36.5859375 C-11.45959289 45.10642204 -11.45959289 45.10642204 -7 52 C-3.42878282 54.38081145 -1.73325367 54.26906871 2.5 54.25 C3.6446875 54.25515625 4.789375 54.2603125 5.96875 54.265625 C9.17666163 54.22885568 9.17666163 54.22885568 12 52 C12 51.34 12 50.68 12 50 C11.34 50 10.68 50 10 50 C10 48.68 10 47.36 10 46 C8.741875 46.061875 7.48375 46.12375 6.1875 46.1875 C3.63359003 46.31310213 2.4551856 46.34304643 0.390625 44.78710938 C-1.43838788 42.43662231 -1.34667883 41.06733546 -1.29296875 38.11328125 C-1.28330078 37.17548828 -1.27363281 36.23769531 -1.26367188 35.27148438 C-1.23853516 34.29501953 -1.21339844 33.31855469 -1.1875 32.3125 C-1.16719727 30.83040039 -1.16719727 30.83040039 -1.14648438 29.31835938 C-1.11112661 26.87867383 -1.05731962 24.43926837 -1 22 C2.63 21.67 6.26 21.34 10 21 C10 18.69 10 16.38 10 14 C6.04 14 2.08 14 -2 14 C-2 10.37 -2 6.74 -2 3 C-5.27275026 3 -7.846632 3.29925156 -11 4 Z " fill="#28ADB1" transform="translate(710,682)"/>
<path d="M0 0 C3.63 0 7.26 0 11 0 C11 4.95 11 9.9 11 15 C10.67 15 10.34 15 10 15 C10 10.71 10 6.42 10 2 C7.03 1.67 4.06 1.34 1 1 C1 6.28 1 11.56 1 17 C-4.61 17 -10.22 17 -16 17 C-16 20.3 -16 23.6 -16 27 C-14.85660156 26.98839844 -13.71320313 26.97679687 -12.53515625 26.96484375 C-11.04427246 26.95546712 -9.55338691 26.94636679 -8.0625 26.9375 C-7.30775391 26.92912109 -6.55300781 26.92074219 -5.77539062 26.91210938 C-3.85005687 26.90347559 -1.92464419 26.94775667 0 27 C1.99616554 28.99616554 1.40983427 32.81701963 1.5625 35.5625 C1.60568359 36.27341797 1.64886719 36.98433594 1.69335938 37.71679688 C1.79971777 39.47761912 1.90038846 41.2387832 2 43 C4.64 43 7.28 43 10 43 C9.98839844 41.92878906 9.97679687 40.85757813 9.96484375 39.75390625 C9.95546701 38.35677257 9.94636669 36.95963701 9.9375 35.5625 C9.92912109 34.85544922 9.92074219 34.14839844 9.91210938 33.41992188 C9.90346412 31.61306441 9.94779989 29.80612397 10 28 C11 27 11 27 14.59765625 26.90234375 C16.08596867 26.9090178 17.57426432 26.92097817 19.0625 26.9375 C19.82111328 26.94201172 20.57972656 26.94652344 21.36132812 26.95117188 C23.24091871 26.9629932 25.12046899 26.98092922 27 27 C27 23.7 27 20.4 27 17 C22.05 17 17.1 17 12 17 C12 16.67 12 16.34 12 16 C17.61 16 23.22 16 29 16 C29.1953125 24.3984375 29.1953125 24.3984375 29 27 C27 29 27 29 23.7421875 29.1953125 C20.16145833 29.13020833 16.58072917 29.06510417 13 29 C12.67 33.95 12.34 38.9 12 44 C7.31489886 45.87404046 4.88523811 46.19157797 0 46 C-1.22325331 43.55349339 -1.13318057 41.91572149 -1.125 39.1875 C-1.12886719 37.90939453 -1.12886719 37.90939453 -1.1328125 36.60546875 C-1 34 -1 34 0 29 C-5.61 29 -11.22 29 -17 29 C-17 23.72 -17 18.44 -17 13 C-16.67 13.66 -16.34 14.32 -16 15 C-10.72 15 -5.44 15 0 15 C0 10.05 0 5.1 0 0 Z " fill="#2499A2" transform="translate(500,556)"/>
<path d="M0 0 C0.66 0 1.32 0 2 0 C2 31.02 2 62.04 2 94 C2.66 94.33 3.32 94.66 4 95 C2.02 95.99 2.02 95.99 0 97 C-1.02058632 80.57878937 -1.15697552 64.17766159 -1.13037109 47.73120117 C-1.12462567 44.13117946 -1.1280011 40.53123157 -1.13394356 36.93121243 C-1.13758496 34.10762491 -1.1363951 31.28405446 -1.13381577 28.46046638 C-1.13284531 26.49988378 -1.13582678 24.53930045 -1.13894653 22.57872009 C-1.11925385 15.00292054 -0.76207201 7.53799483 0 0 Z " fill="#0C1243" transform="translate(463,292)"/>
<path d="M0 0 C0.33 0 0.66 0 1 0 C1 2.31 1 4.62 1 7 C1.66 7.33 2.32 7.66 3 8 C2.67 35.06 2.34 62.12 2 90 C0.68 90 -0.64 90 -2 90 C-3.38793945 88.47119141 -3.38793945 88.47119141 -4.61328125 86.3515625 C-5.2774707 85.21460938 -5.2774707 85.21460938 -5.95507812 84.0546875 C-6.40302734 83.25289063 -6.85097656 82.45109375 -7.3125 81.625 C-7.77978516 80.8309375 -8.24707031 80.036875 -8.72851562 79.21875 C-11.22841305 74.86146941 -11.22841305 74.86146941 -12 73 C-11.505 72.01 -11.505 72.01 -11 71 C-10.44570313 71.90363281 -9.89140625 72.80726563 -9.3203125 73.73828125 C-8.58857144 74.92970579 -7.85679896 76.12111103 -7.125 77.3125 C-6.76019531 77.90740234 -6.39539063 78.50230469 -6.01953125 79.11523438 C-4.38588461 81.77362299 -2.73104176 84.40343737 -1 87 C-0.67 58.29 -0.34 29.58 0 0 Z " fill="#259CA6" transform="translate(618,413)"/>
<path d="M0 0 C0 17.82 0 35.64 0 54 C-12 54 -12 54 -15.04296875 51.54296875 C-15.75066406 50.43566406 -16.45835937 49.32835937 -17.1875 48.1875 C-17.99138842 46.99597554 -18.79742346 45.80589686 -19.60546875 44.6171875 C-19.99782715 44.01358398 -20.39018555 43.40998047 -20.79443359 42.78808594 C-22.69046269 39.97591156 -24.83132114 37.42044874 -27 34.8125 C-27.721875 33.93207031 -28.44375 33.05164063 -29.1875 32.14453125 C-30.97338283 29.97087361 -30.97338283 29.97087361 -33 28 C-34.41885983 25.71118232 -35.6915737 23.35516735 -37 21 C-36.34 21 -35.68 21 -35 21 C-31 25.47058824 -31 25.47058824 -31 28 C-30.34 28 -29.68 28 -29 28 C-27.80859375 29.36328125 -27.80859375 29.36328125 -26.4375 31.3125 C-23.17609944 35.81595728 -19.68598019 40.09822401 -16.1484375 44.38671875 C-14 47 -14 47 -12.2265625 49.83203125 C-9.56265159 52.93015558 -9.56265159 52.93015558 -2 52 C-2 35.17 -2 18.34 -2 1 C-4.97 1 -7.94 1 -11 1 C-11 10.24 -11 19.48 -11 29 C-11.33 29 -11.66 29 -12 29 C-12 19.43 -12 9.86 -12 0 C-9 -1 -9 -1 0 0 Z " fill="#1B9398" transform="translate(638,683)"/>
<path d="M0 0 C2.375 2.0625 2.375 2.0625 4 4 C3.360625 3.649375 2.72125 3.29875 2.0625 2.9375 C-2.26634413 1.61234363 -5.65969688 1.69720102 -10 3 C-26.06133864 11.944175 -34.91765907 31.90361412 -40.13671875 48.7265625 C-41.13839967 52.52479151 -41.76023589 56.08385293 -42 60 C-37.54695356 61.42497486 -33.72944312 62.53743672 -29 62 C-26.1728759 59.75298708 -24.85864545 57.03015405 -23.3125 53.8125 C-22.87550781 52.91144531 -22.43851562 52.01039063 -21.98828125 51.08203125 C-21.66214844 50.39496094 -21.33601563 49.70789063 -21 49 C-20.67 49.66 -20.34 50.32 -20 51 C-21.109375 53.6796875 -21.109375 53.6796875 -22.75 56.875 C-23.28109375 57.92429687 -23.8121875 58.97359375 -24.359375 60.0546875 C-25.75587348 62.56173478 -27.20888951 64.7665068 -29 67 C-29 66.34 -29 65.68 -29 65 C-29.845625 65.061875 -30.69125 65.12375 -31.5625 65.1875 C-35.70319401 64.96164396 -38.38262102 64.01738443 -42 62 C-43.80674328 59.61509887 -44.05132963 58.04797995 -43.90625 55.0859375 C-41.07902079 36.38767161 -29.96885968 14.7775696 -14.76171875 3.3125 C-9.67011294 0.03600046 -6.1087388 -1.6206858 0 0 Z " fill="#2798A2" transform="translate(524,244)"/>
<path d="M0 0 C-0.33 3.63 -0.66 7.26 -1 11 C-2.65 11.33 -4.3 11.66 -6 12 C-10.85020344 13.64604791 -10.85020344 13.64604791 -14.66796875 16.90234375 C-16.69132279 21.60768027 -16.57391192 26.23998074 -16.6875 31.3125 C-16.72166016 32.33923828 -16.75582031 33.36597656 -16.79101562 34.42382812 C-16.87323409 36.94910963 -16.94246936 39.4740554 -17 42 C-19.31 42 -21.62 42 -24 42 C-24 41.67 -24 41.34 -24 41 C-22.02 41 -20.04 41 -18 41 C-18.03927612 39.94872925 -18.03927612 39.94872925 -18.0793457 38.8762207 C-18.1835354 35.6885435 -18.24839583 32.50122474 -18.3125 29.3125 C-18.3753418 27.65831055 -18.3753418 27.65831055 -18.43945312 25.97070312 C-18.56357372 17.75391981 -18.56357372 17.75391981 -15.640625 13.84375 C-14.76921875 13.2353125 -13.8978125 12.626875 -13 12 C-12.154375 11.401875 -11.30875 10.80375 -10.4375 10.1875 C-8 9 -8 9 -4 9 C-4 6.69 -4 4.38 -4 2 C-11.22137442 4.89209036 -11.22137442 4.89209036 -17 10 C-17.33 10 -17.66 10 -18 10 C-18 7.36 -18 4.72 -18 2 C-20.64 2 -23.28 2 -26 2 C-22.5647952 -0.29013653 -21.014669 -0.17842973 -17 0 C-16.34 1.32 -15.68 2.64 -15 4 C-14.13375 3.360625 -13.2675 2.72125 -12.375 2.0625 C-8.00234341 -0.60967903 -4.92089662 -1.64029887 0 0 Z " fill="#15285D" transform="translate(344,694)"/>
<path d="M0 0 C0.66 0 1.32 0 2 0 C2.33 1.65 2.66 3.3 3 5 C4.01320313 5.27972656 5.02640625 5.55945313 6.0703125 5.84765625 C19.62412372 9.80985106 19.62412372 9.80985106 23.23828125 15.04296875 C24.73230784 18.88146784 24.31402858 22.16275698 23 26 C20.14374649 30.67386938 17.21457503 32.93186282 12.09375 34.52734375 C4.56856523 36.22612613 -2.22354781 34.54696367 -9 31 C-10.82421875 28.859375 -10.82421875 28.859375 -12 27 C-10.68 25.68 -9.36 24.36 -8 23 C-8.33 24.98 -8.66 26.96 -9 29 C-0.75508711 31.63335621 7.02237117 33.7195445 15.4375 30.8125 C18.38904036 28.72482511 19.63083757 27.34684149 21 24 C21.49160944 20.06712449 21.52628142 17.8843698 19.484375 14.453125 C16.21700722 11.22685619 13.17293986 10.40503207 8.8125 9.25 C1.06836175 7.06836175 1.06836175 7.06836175 0 6 C-0.04080783 4.00041636 -0.04254356 1.99954746 0 0 Z " fill="#279A9E" transform="translate(784,703)"/>
<path d="M0 0 C0.66 0 1.32 0 2 0 C-0.09885677 9.09504601 -6.67723456 15.46081811 -14.24609375 20.4296875 C-23.95701113 25.96697656 -32.8159968 28.17826878 -43.875 28.1875 C-44.63941406 28.19974609 -45.40382813 28.21199219 -46.19140625 28.22460938 C-51.451002 28.23800393 -55.94446359 27.45677758 -61 26 C-60.67 21.05 -60.34 16.1 -60 11 C-59.67 11 -59.34 11 -59 11 C-59 15.62 -59 20.24 -59 25 C-40.85323189 27.04470627 -24.78336758 25.76194939 -10 14 C-5.67673087 9.81078573 -2.35574061 5.54291909 0 0 Z " fill="#238D9A" transform="translate(535,500)"/>
<path d="M0 0 C0.33 0 0.66 0 1 0 C1.66 7.26 2.32 14.52 3 22 C8.71704177 22.24253563 8.71704177 22.24253563 13 21 C14.485 25.455 14.485 25.455 16 30 C11.07802775 34.19279118 6.32570975 34.33887731 0 34 C-3.97598574 33.05333673 -6.44364304 31.14625548 -8.99609375 27.9296875 C-10.92616024 24.21975424 -10.91055554 20.11444532 -11 16 C-10.34 16 -9.68 16 -9 16 C-8.91363281 16.66386719 -8.82726562 17.32773437 -8.73828125 18.01171875 C-8.07462845 22.18238082 -7.32037097 25.44763627 -5.1875 29.125 C-0.09499447 32.12059149 5.23209275 31.53265634 11 31 C11.99 30.67 12.98 30.34 14 30 C14 29.34 14 28.68 14 28 C13.34 28 12.68 28 12 28 C12 26.68 12 25.36 12 24 C10.7625 24.2475 9.525 24.495 8.25 24.75 C5.3537262 25.32925476 4.33389717 25.19477335 1.75 23.6875 C-1.01908931 19.43496998 -0.42141108 15.20114302 -0.25 10.25 C-0.23195313 9.26644531 -0.21390625 8.28289063 -0.1953125 7.26953125 C-0.14824126 4.84536217 -0.08250742 2.42317941 0 0 Z " fill="#21A0A4" transform="translate(708,704)"/>
<path d="M0 0 C0.66 0 1.32 0 2 0 C2 0.66 2 1.32 2 2 C2.66 2 3.32 2 4 2 C5.40912096 4.81824192 5.11183553 7.17251282 5.09765625 10.3203125 C5.09443359 11.57714844 5.09121094 12.83398438 5.08789062 14.12890625 C5.07951172 15.44761719 5.07113281 16.76632812 5.0625 18.125 C5.05748489 19.46484211 5.05292201 20.804686 5.04882812 22.14453125 C5.03701086 25.42973206 5.02053617 28.71484397 5 32 C7.64 32 10.28 32 13 32 C12.98428955 31.33468262 12.9685791 30.66936523 12.95239258 29.98388672 C12.88974403 26.9476788 12.85091491 23.91160728 12.8125 20.875 C12.78736328 19.82828125 12.76222656 18.7815625 12.73632812 17.703125 C12.68166509 11.94528536 12.79323659 7.86485368 16 3 C17 6 17 6 16 9 C15.91733514 10.91906917 15.89259337 12.84089474 15.90234375 14.76171875 C15.90556641 15.87998047 15.90878906 16.99824219 15.91210938 18.15039062 C15.92048828 19.31763672 15.92886719 20.48488281 15.9375 21.6875 C15.94201172 22.86634766 15.94652344 24.04519531 15.95117188 25.25976562 C15.96296715 28.17319867 15.98090273 31.08660567 16 34 C11.71 34 7.42 34 3 34 C3.03480469 32.29972656 3.06960938 30.59945312 3.10546875 28.84765625 C3.1336228 26.58594744 3.16092122 24.32422787 3.1875 22.0625 C3.21263672 20.94552734 3.23777344 19.82855469 3.26367188 18.67773438 C3.32455582 11.75725875 2.59692408 6.42755749 0 0 Z " fill="#0E1D4D" transform="translate(373,703)"/>
<path d="M0 0 C0.33 1.65 0.66 3.3 1 5 C-1.64 4.34 -4.28 3.68 -7 3 C-7.33 15.54 -7.66 28.08 -8 41 C-5.69 41 -3.38 41 -1 41 C-1 41.33 -1 41.66 -1 42 C-5.455 42.495 -5.455 42.495 -10 43 C-10 29.14 -10 15.28 -10 1 C-6.52674819 -0.1577506 -3.63932552 -0.06866652 0 0 Z " fill="#162758" transform="translate(359,694)"/>
<path d="M0 0 C6.16142935 0.8441816 10.14953554 4.33350718 15 8 C15.62261719 8.45375 16.24523437 8.9075 16.88671875 9.375 C25.9115853 16.44342695 32.92768134 26.97670591 36 38 C36.12109375 41.3515625 36.12109375 41.3515625 36 44 C34.82146128 41.70963229 33.73930768 39.40637531 32.703125 37.046875 C29.75601932 30.36043094 26.69394042 24.59414817 22 19 C21.21625 17.96875 20.4325 16.9375 19.625 15.875 C14.48918749 10.25006248 8.05972203 6.30026029 1.6875 2.19921875 C1.130625 1.80347656 0.57375 1.40773438 0 1 C0 0.67 0 0.34 0 0 Z " fill="#152552" transform="translate(592,343)"/>
<path d="M0 0 C0.33 0 0.66 0 1 0 C1.27714844 0.90363281 1.55429687 1.80726563 1.83984375 2.73828125 C2.20207031 3.91777344 2.56429687 5.09726562 2.9375 6.3125 C3.29714844 7.48425781 3.65679688 8.65601563 4.02734375 9.86328125 C4.95857166 14.01465353 4.95857166 14.01465353 7.5625 17 C8.366875 17.33 9.17125 17.66 10 18 C11.175625 18.53625 12.35125 19.0725 13.5625 19.625 C19.35775507 21.72942223 25.6273564 22.2268987 31.48046875 20.09765625 C33.3695188 19.1581464 35.19388887 18.09048219 37 17 C36.505 15.02 36.505 15.02 36 13 C34.68 13 33.36 13 32 13 C31.34 12.67 30.68 12.34 30 12 C30.99 11.01 31.98 10.02 33 9 C35.84383123 10.2748209 38.13754018 11.45137078 40 14 C40 15.9375 40 15.9375 39 18 C34.47916355 22.3916697 29.90898276 24.06364069 23.6875 24.3125 C15.89437263 24.10258411 9.44323348 21.69640713 4 16 C0.33682665 10.68212218 -0.45575083 6.38051158 0 0 Z " fill="#26A5A8" transform="translate(727,714)"/>
<path d="M0 0 C0.99 0.495 0.99 0.495 2 1 C2 11.56 2 22.12 2 33 C4.64 33 7.28 33 10 33 C10 26.4 10 19.8 10 13 C10.33 13 10.66 13 11 13 C11 20.26 11 27.52 11 35 C7.37 35 3.74 35 0 35 C0 23.45 0 11.9 0 0 Z " fill="#0C1B4E" transform="translate(212,702)"/>
<path d="M0 0 C2 2 2 2 2.22705078 4.52197266 C2.21657715 5.5588623 2.20610352 6.59575195 2.1953125 7.6640625 C2.18886719 8.78554688 2.18242187 9.90703125 2.17578125 11.0625 C2.15902344 12.238125 2.14226562 13.41375 2.125 14.625 C2.11597656 15.80835938 2.10695313 16.99171875 2.09765625 18.2109375 C2.07402812 21.14082523 2.04108514 24.0703134 2 27 C4.64 27 7.28 27 10 27 C10 25.35 10 23.7 10 22 C12 24 12 24 12.125 26.625 C12.08375 27.40875 12.0425 28.1925 12 29 C10 30 10 30 0 29 C0 19.43 0 9.86 0 0 Z " fill="#142654" transform="translate(502,708)"/>
<path d="M0 0 C0.33 0 0.66 0 1 0 C1.33 11.22 1.66 22.44 2 34 C0.68 34 -0.64 34 -2 34 C-3.85506636 31.96953473 -5.41583129 30.03753697 -7 27.8125 C-7.85381637 26.65208593 -8.70797853 25.49192619 -9.5625 24.33203125 C-9.96984375 23.77080566 -10.3771875 23.20958008 -10.796875 22.63134766 C-12.46613707 20.36795295 -14.22540865 18.18126854 -16 16 C-15.67 15.34 -15.34 14.68 -15 14 C-14.55269531 14.51949219 -14.10539063 15.03898438 -13.64453125 15.57421875 C-8.03802225 22.63612258 -8.03802225 22.63612258 -1 28 C-0.67 18.76 -0.34 9.52 0 0 Z " fill="#26ACB1" transform="translate(625,683)"/>
<path d="M0 0 C0.66 0 1.32 0 2 0 C6 4.47058824 6 4.47058824 6 7 C6.66 7 7.32 7 8 7 C9.19140625 8.36328125 9.19140625 8.36328125 10.5625 10.3125 C13.82390056 14.81595728 17.31401981 19.09822401 20.8515625 23.38671875 C22.30070083 25.14939791 23.68881469 26.96380661 25.015625 28.8203125 C26.75541258 31.16307889 26.75541258 31.16307889 29.0703125 31.41796875 C29.74835937 31.34191406 30.42640625 31.26585937 31.125 31.1875 C32.40375 31.125625 33.6825 31.06375 35 31 C35.66 31.66 36.32 32.32 37 33 C32.75921464 33.85252902 29.21989107 34.04873033 25 33 C21.3979902 29.66307317 18.8701794 25.88732219 16.20556641 21.78808594 C14.30953731 18.97591156 12.16867886 16.42044874 10 13.8125 C9.278125 12.93207031 8.55625 12.05164063 7.8125 11.14453125 C6.02661717 8.97087361 6.02661717 8.97087361 4 7 C2.58114017 4.71118232 1.3084263 2.35516735 0 0 Z " fill="#229BA1" transform="translate(601,704)"/>
<path d="M0 0 C2 2 2 2 2.8125 5.4375 C3.65873803 9.03993187 3.65873803 9.03993187 6.1328125 10.73046875 C9.72811782 12.32239549 12.15928772 12.20061557 16.0625 11.875 C17.27035156 11.78992188 18.47820312 11.70484375 19.72265625 11.6171875 C23.03278711 10.99382555 24.55818884 10.25304272 27 8 C26.03441599 10.54563057 25.06131195 11.94635204 23 13.75 C17.93659296 15.85975293 12.94991298 15.83431882 7.6796875 14.34375 C3.9616181 12.75225166 1.70295405 11.19791052 -0.0625 7.5 C-1.28758829 2.92633703 -1.28758829 2.92633703 0 0 Z " fill="#122455" transform="translate(269,723)"/>
<path d="M0 0 C6.09347984 1.25905014 9.85038667 3.81379064 13.8125 8.5625 C17.3969434 14.38722053 17.13592553 19.93826599 16.8125 26.5625 C16.1525 26.2325 15.4925 25.9025 14.8125 25.5625 C14.4429753 23.51251776 14.16676086 21.44536595 13.9375 19.375 C13.0330301 12.92358582 11.93789335 9.43814731 7.1015625 4.98828125 C4.11617174 3.12878018 1.53718279 2.82670876 -1.9375 2.375 C-3.10796875 2.21644531 -4.2784375 2.05789063 -5.484375 1.89453125 C-6.37640625 1.78496094 -7.2684375 1.67539062 -8.1875 1.5625 C-4.70921696 -0.75635536 -3.98010465 -0.63434672 0 0 Z " fill="#23A1A3" transform="translate(752.1875,693.4375)"/>
<path d="M0 0 C5.28 2.31 10.56 4.62 16 7 C16 7.66 16 8.32 16 9 C8.5 6 8.5 6 1 3 C3.45922739 12.24317677 3.45922739 12.24317677 7.8125 20.6875 C8.534375 21.780625 9.25625 22.87375 10 24 C9.67 24.66 9.34 25.32 9 26 C3.22435263 17.92530853 -0.2999083 10.97630669 -1 1 C-0.67 0.67 -0.34 0.34 0 0 Z " fill="#2691A1" transform="translate(510,427)"/>
<path d="M0 0 C0.33 0 0.66 0 1 0 C0.39331081 10.51594599 -4.5179581 19.51822221 -9.66796875 28.52734375 C-12.00751824 32.55415614 -12.00751824 32.55415614 -13 37 C-14.65 37 -16.3 37 -18 37 C-17.57589844 36.36835938 -17.15179687 35.73671875 -16.71484375 35.0859375 C-9.46744782 24.03166767 -3.74431723 12.69811929 0 0 Z " fill="#0A1448" transform="translate(545,328)"/>
<path d="M0 0 C0.680625 0.70125 1.36125 1.4025 2.0625 2.125 C3.03673336 3.08834807 4.01633007 4.04628956 5 5 C5.50789063 5.49242187 6.01578125 5.98484375 6.5390625 6.4921875 C12.69593403 12.12382828 20.00249323 15.68493225 28 18 C28 18.33 28 18.66 28 19 C17.07324521 18.47967834 9.61484018 13.70614521 2 6 C0 3 0 3 0 0 Z " fill="#142352" transform="translate(379,629)"/>
<path d="M0 0 C0.66 0 1.32 0 2 0 C2 9.24 2 18.48 2 28 C1.01 27.67 0.02 27.34 -1 27 C-1.11157151 17.92551747 -0.94242818 9.03721311 0 0 Z " fill="#111F4E" transform="translate(463,292)"/>
<path d="M0 0 C3.15193486 1.57596743 3.76691026 4.75500134 5.0390625 7.87890625 C5.32478119 8.5655687 5.61049988 9.25223114 5.90487671 9.95970154 C6.81791212 12.15807427 7.72153324 14.36017988 8.625 16.5625 C9.24157232 18.05168714 9.85875216 19.54062291 10.4765625 21.02929688 C11.99144535 24.68331606 13.497895 28.34071057 15 32 C14.01 32.495 14.01 32.495 13 33 C9.88084461 27.13433168 7.16127336 21.16071838 4.6875 15 C4.42114746 14.3412085 4.15479492 13.68241699 3.88037109 13.00366211 C2 8.2533484 2 8.2533484 2 6 C1.34 5.67 0.68 5.34 0 5 C0 3.35 0 1.7 0 0 Z " fill="#122251" transform="translate(522,702)"/>
<path d="M0 0 C14.61310751 -0.80193883 14.61310751 -0.80193883 21 4 C24.30500807 7.05713246 24.95257789 8.27681281 25.25 12.8125 C25.1675 13.864375 25.085 14.91625 25 16 C24.731875 15.443125 24.46375 14.88625 24.1875 14.3125 C21.11921561 8.25548285 21.11921561 8.25548285 16 4 C13.20740067 3.47568667 10.56394368 3.08345394 7.75 2.8125 C6.63238281 2.6897168 6.63238281 2.6897168 5.4921875 2.56445312 C3.66264644 2.36508006 1.83144849 2.18101526 0 2 C0 1.34 0 0.68 0 0 Z " fill="#15285A" transform="translate(281,694)"/>
<path d="M0 0 C-2.15388245 1.11682794 -4.18669975 2.06067742 -6.5 2.8125 C-9.779258 4.37014755 -11.1333854 5.88897566 -13 9 C-13.47074539 12.76596313 -13.30423825 15.21255982 -11.9375 18.75 C-9.28375349 21.83177014 -6.80901248 22.63450496 -3 24 C-4.625 24.75 -4.625 24.75 -7 25 C-11.27219743 22.73311973 -14.26959691 20.58047876 -16 16 C-16.29338391 11.11915865 -15.74119071 7.94151253 -12.6875 4.0625 C-8.17754743 0.60137361 -5.76062771 -0.26184671 0 0 Z " fill="#229DA0" transform="translate(790,694)"/>
<path d="M0 0 C0.33 0 0.66 0 1 0 C1 8.58 1 17.16 1 26 C-1 25 -1 25 -1.61328125 23.3984375 C-2.14126508 20.12387114 -2.17095193 16.9412328 -2.1875 13.625 C-2.20167969 12.33851563 -2.21585937 11.05203125 -2.23046875 9.7265625 C-2.00714141 6.11547289 -1.31293032 3.35238333 0 0 Z " fill="#142456" transform="translate(464,548)"/>
<path d="M0 0 C0 0.66 0 1.32 0 2 C-1.093125 2.391875 -2.18625 2.78375 -3.3125 3.1875 C-5.77397536 4.06991569 -6.94021094 4.93246051 -8.6875 6.90625 C-10.68407438 11.61246103 -10.57410068 16.24841021 -10.6875 21.3125 C-10.72166016 22.33923828 -10.75582031 23.36597656 -10.79101562 24.42382812 C-10.87323409 26.94910963 -10.94246936 29.4740554 -11 32 C-13.31 32 -15.62 32 -18 32 C-18 31.67 -18 31.34 -18 31 C-16.02 31 -14.04 31 -12 31 C-12.02618408 30.29915283 -12.05236816 29.59830566 -12.0793457 28.8762207 C-12.1835354 25.6885435 -12.24839583 22.50122474 -12.3125 19.3125 C-12.3753418 17.65831055 -12.3753418 17.65831055 -12.43945312 15.97070312 C-12.56348478 7.75980778 -12.56348478 7.75980778 -9.66796875 3.85546875 C-4.12421053 0 -4.12421053 0 0 0 Z " fill="#0D1B4B" transform="translate(338,704)"/>
<path d="M0 0 C0 3.63 0 7.26 0 11 C-0.66 10.67 -1.32 10.34 -2 10 C-2.33 13.96 -2.66 17.92 -3 22 C-3.33 22 -3.66 22 -4 22 C-4.33 19.36 -4.66 16.72 -5 14 C-5.33 14 -5.66 14 -6 14 C-6.29036073 10.61891061 -6.44386926 7.37129273 -6 4 C-2.28571429 0 -2.28571429 0 0 0 Z " fill="#193470" transform="translate(497,394)"/>
<path d="M0 0 C0.33 0.66 0.66 1.32 1 2 C-0.109375 4.6796875 -0.109375 4.6796875 -1.75 7.875 C-2.54664063 9.44894531 -2.54664063 9.44894531 -3.359375 11.0546875 C-4.75587348 13.56173478 -6.20888951 15.7665068 -8 18 C-8 17.34 -8 16.68 -8 16 C-8.845625 16.061875 -9.69125 16.12375 -10.5625 16.1875 C-14.70319401 15.96164396 -17.38262102 15.01738443 -21 13 C-22.4375 10.3125 -22.4375 10.3125 -23 8 C-22.34 8 -21.68 8 -21 8 C-21 8.99 -21 9.98 -21 11 C-16.54695356 12.42497486 -12.72944312 13.53743672 -8 13 C-5.1728759 10.75298708 -3.85864545 8.03015405 -2.3125 4.8125 C-1.87550781 3.91144531 -1.43851562 3.01039063 -0.98828125 2.08203125 C-0.66214844 1.39496094 -0.33601563 0.70789063 0 0 Z " fill="#2796A3" transform="translate(503,293)"/>
<path d="M0 0 C4.455 0.99 4.455 0.99 9 2 C9.6875 4.3125 9.6875 4.3125 10 7 C8.43132833 9.14928391 7.52316255 9.91039757 4.87890625 10.36328125 C4.11449219 10.34652344 3.35007812 10.32976563 2.5625 10.3125 C1.80066406 10.30863281 1.03882813 10.30476562 0.25390625 10.30078125 C-2.19529127 9.9739386 -3.86700917 9.21954601 -6 8 C-3.24921116 7.08307039 -1.64051087 6.89113917 1.1875 6.9375 C3.0746875 6.9684375 3.0746875 6.9684375 5 7 C4.80528889 5.05000871 4.80528889 5.05000871 4 3 C2.0162233 1.71563266 2.0162233 1.71563266 0 1 C0 0.67 0 0.34 0 0 Z M7 4 C8 7 8 7 8 7 Z " fill="#26A8AB" transform="translate(788,719)"/>
<path d="M0 0 C1.5 1.1875 1.5 1.1875 3 3 C3.1875 5.6875 3.1875 5.6875 3 8 C2.34 7.34 1.68 6.68 1 6 C0.34 8.64 -0.32 11.28 -1 14 C-1.33 12.68 -1.66 11.36 -2 10 C-3.65 10.66 -5.3 11.32 -7 12 C-6.34 9.03 -5.68 6.06 -5 3 C-3.68 2.67 -2.36 2.34 -1 2 C-0.67 1.34 -0.34 0.68 0 0 Z " fill="#193570" transform="translate(495,416)"/>
<path d="M0 0 C1.32 0.33 2.64 0.66 4 1 C4 2.98 4 4.96 4 7 C3.67 5.68 3.34 4.36 3 3 C0.36 3.99 -2.28 4.98 -5 6 C-5.33 9.96 -5.66 13.92 -6 18 C-6.33 18 -6.66 18 -7 18 C-7.91657981 12.61509359 -8.11138159 7.45769811 -8 2 C-5.36 2 -2.72 2 0 2 C0 1.34 0 0.68 0 0 Z " fill="#142657" transform="translate(256,681)"/>
<path d="M0 0 C8.44972235 4.366435 14.4826684 14.35322648 18 23 C18.52438706 25.36426233 18.79817271 27.57807253 19 30 C16.93557246 26.90335869 15.50425025 23.81175409 13.9375 20.4375 C11.04648969 14.40398498 7.56093984 9.7690834 2.8203125 4.98828125 C1 3 1 3 0 0 Z " fill="#1E9AA0" transform="translate(539,443)"/>
<path d="M0 0 C2.36941439 2.46813999 2.98706119 3.90770314 3.46875 7.34375 C3 11 3 11 0.375 13.65234375 C-0.73366482 14.437648 -1.85958687 15.19905681 -3 15.9375 C-3.57234375 16.33517578 -4.1446875 16.73285156 -4.734375 17.14257812 C-6.1419077 18.11612158 -7.56917657 19.06102212 -9 20 C-9 19.01 -9 18.02 -9 17 C-7.46875 15.61328125 -7.46875 15.61328125 -5.5 14.3125 C-4.8503125 13.87550781 -4.200625 13.43851562 -3.53125 12.98828125 C-3.0259375 12.66214844 -2.520625 12.33601563 -2 12 C-2.226875 11.319375 -2.45375 10.63875 -2.6875 9.9375 C-3.12290176 5.84472345 -1.79836785 3.66867041 0 0 Z " fill="#278F9F" transform="translate(490,358)"/>
<path d="M0 0 C0.99 0.33 1.98 0.66 3 1 C2.84152588 2.0010376 2.68305176 3.0020752 2.51977539 4.03344727 C1.97700021 7.84435196 1.79540523 11.61533412 1.68359375 15.46484375 C1.66281265 16.14301651 1.64203156 16.82118927 1.62062073 17.51991272 C1.55590691 19.65901831 1.4966091 21.79823296 1.4375 23.9375 C1.39424016 25.39909924 1.35062366 26.86068797 1.30664062 28.32226562 C1.20030749 31.8813984 1.0988267 35.44064997 1 39 C0.67 39 0.34 39 0 39 C0 26.13 0 13.26 0 0 Z " fill="#153173" transform="translate(318,696)"/>
<path d="M0 0 C2 2 2 2 2.22705078 4.33837891 C2.21657715 5.29147949 2.20610352 6.24458008 2.1953125 7.2265625 C2.18886719 8.2578125 2.18242188 9.2890625 2.17578125 10.3515625 C2.15902344 11.43179687 2.14226563 12.51203125 2.125 13.625 C2.11597656 14.71296875 2.10695313 15.8009375 2.09765625 16.921875 C2.07403409 19.61480152 2.04109556 22.30729255 2 25 C1.01 24.67 0.02 24.34 -1 24 C-0.67 16.08 -0.34 8.16 0 0 Z " fill="#1A2C58" transform="translate(630,407)"/>
<path d="M0 0 C0.66 0.66 1.32 1.32 2 2 C1.0821875 2.07476563 0.164375 2.14953125 -0.78125 2.2265625 C-8.95423806 3.10223979 -13.96029527 4.43113247 -20 10 C-20.99 10.495 -20.99 10.495 -22 11 C-20.1742407 6.73989496 -18.13557659 3.86230326 -13.7265625 2.08203125 C-9.14568495 0.61697582 -4.84658643 -0.6058233 0 0 Z " fill="#22A1A5" transform="translate(670,693)"/>
<path d="M0 0 C0.5775 0.226875 1.155 0.45375 1.75 0.6875 C1.23050781 1.06261719 0.71101563 1.43773437 0.17578125 1.82421875 C-3.97032397 4.86673959 -7.65523677 7.99288224 -11.25 11.6875 C-12.56175986 12.71563611 -13.8869893 13.72834432 -15.25 14.6875 C-14.68615403 10.92572163 -13.14178399 9.2289395 -10.4375 6.625 C-9.40689453 5.61759766 -9.40689453 5.61759766 -8.35546875 4.58984375 C-2.83911356 -0.39432133 -2.83911356 -0.39432133 0 0 Z " fill="#101E4D" transform="translate(399.25,571.3125)"/>
<path d="M0 0 C6.46326465 -0.45356243 9.60931587 0.40621058 15 4 C14.44271087 7.34373475 13.64826111 10.03312999 12 13 C11.01 13 10.02 13 9 13 C9.309375 12.4225 9.61875 11.845 9.9375 11.25 C10.92583364 9.15705816 11.5168613 7.25464725 12 5 C7.9811485 3.18757677 4.38889325 1.66498383 0 1 C0 0.67 0 0.34 0 0 Z " fill="#2A9EA1" transform="translate(791,694)"/>
<path d="M0 0 C1.7734375 1.578125 1.7734375 1.578125 3 3 C2.67 3.66 2.34 4.32 2 5 C1.1028125 4.2884375 1.1028125 4.2884375 0.1875 3.5625 C-4.40006225 1.31369498 -8.95027297 1.256466 -14 1 C-14 0.34 -14 -0.32 -14 -1 C-9.21444098 -2.54372872 -4.63897137 -1.70269361 0 0 Z " fill="#122153" transform="translate(381,695)"/>
<path d="M0 0 C1.77260631 0.45142775 3.5430368 0.91140523 5.3125 1.375 C6.79169922 1.75785156 6.79169922 1.75785156 8.30078125 2.1484375 C11 3 11 3 14 5 C13.67 5.66 13.34 6.32 13 7 C8 5.33333333 3 3.66666667 -2 2 C-1.34 1.34 -0.68 0.68 0 0 Z " fill="#193366" transform="translate(499,315)"/>
<path d="M0 0 C0.66 0 1.32 0 2 0 C2.33 1.65 2.66 3.3 3 5 C7.29 6.32 11.58 7.64 16 9 C16 9.33 16 9.66 16 10 C10.04492601 9.6083965 5.37180176 8.62875405 0 6 C0 4.02 0 2.04 0 0 Z " fill="#25A8AA" transform="translate(784,703)"/>
<path d="M0 0 C0.53625 0.721875 1.0725 1.44375 1.625 2.1875 C5.21760656 6.4419025 9.51906371 9.72546964 14 13 C8.55466487 12.61104749 5.87313039 10.7851047 2 7 C0.24329531 4.28509275 0 3.28565953 0 0 Z " fill="#112152" transform="translate(424,723)"/>
<path d="M0 0 C-1.299375 0.5259375 -1.299375 0.5259375 -2.625 1.0625 C-7.88527285 4.08228626 -11.12180532 7.8045133 -13.375 13.4375 C-13.58125 14.283125 -13.7875 15.12875 -14 16 C-14.33 16 -14.66 16 -15 16 C-14.63654519 10.06357148 -13.0435905 6.3947146 -9 2 C-5.72903719 -0.55294659 -3.95219465 -1.61015338 0 0 Z " fill="#22A3A6" transform="translate(743,696)"/>
<path d="M0 0 C0.66 0.33 1.32 0.66 2 1 C1.51917969 1.36738281 1.03835938 1.73476563 0.54296875 2.11328125 C-1.61204917 4.74840443 -1.50672346 6.82505636 -1.6875 10.1875 C-1.75324219 11.27417969 -1.81898438 12.36085938 -1.88671875 13.48046875 C-1.92410156 14.31191406 -1.96148437 15.14335937 -2 16 C-2.66 16 -3.32 16 -4 16 C-4.1080023 13.89695523 -4.18558987 11.79233091 -4.25 9.6875 C-4.31960938 7.92986328 -4.31960938 7.92986328 -4.390625 6.13671875 C-4 3 -4 3 -1.984375 1.08203125 C-1.32953125 0.72496094 -0.6746875 0.36789062 0 0 Z " fill="#0B1042" transform="translate(467,416)"/>
<path d="M0 0 C0.33 0.99 0.66 1.98 1 3 C-1.9634407 6.29271189 -3.58141189 7.84659034 -8.0703125 8.33203125 C-11.06063476 8.31435795 -14.01785889 8.2171462 -17 8 C-17 7.67 -17 7.34 -17 7 C-16.12988281 6.96132813 -16.12988281 6.96132813 -15.2421875 6.921875 C-8.70929836 6.44753981 -4.72088137 4.72088137 0 0 Z " fill="#112250" transform="translate(542,744)"/>
<path d="M0 0 C5.61 0 11.22 0 17 0 C17.33 0.99 17.66 1.98 18 3 C5.33029613 3.3690205 5.33029613 3.3690205 0 1 C0 0.67 0 0.34 0 0 Z " fill="#204074" transform="translate(503,493)"/>
<path d="M0 0 C4.9723422 1.49170266 9.41845739 3.60457417 14 6 C13.67 6.66 13.34 7.32 13 8 C9.97580475 7.41196203 6.98241547 6.77321882 4 6 C4 5.01 4 4.02 4 3 C2.68 2.67 1.36 2.34 0 2 C0 1.34 0 0.68 0 0 Z " fill="#1D3869" transform="translate(477,350)"/>
<path d="M0 0 C0.66 0 1.32 0 2 0 C2 7.59 2 15.18 2 23 C1.67 23 1.34 23 1 23 C0.93941406 22.05898438 0.87882812 21.11796875 0.81640625 20.1484375 C0.69072266 18.28058594 0.69072266 18.28058594 0.5625 16.375 C0.48128906 15.14523437 0.40007812 13.91546875 0.31640625 12.6484375 C0.06170859 9.04791206 0.06170859 9.04791206 -0.59765625 5.7265625 C-1 3 -1 3 0 0 Z " fill="#173671" transform="translate(472,412)"/>
<path d="M0 0 C3.85991137 1.28663712 4.8665643 2.54912217 7 6 C7.46599717 8.79383884 7.38115034 11.49024562 7.25 14.3125 C7.23195313 15.05306641 7.21390625 15.79363281 7.1953125 16.55664062 C7.14847337 18.3716571 7.07673789 20.18600166 7 22 C6.67 22 6.34 22 6 22 C5.98582031 21.05898438 5.97164063 20.11796875 5.95703125 19.1484375 C5.97718595 11.11439146 5.97718595 11.11439146 2.4375 4.25 C1.633125 3.5075 0.82875 2.765 0 2 C0 1.34 0 0.68 0 0 Z " fill="#0F1544" transform="translate(468,503)"/>
<path d="M0 0 C0.33 0.66 0.66 1.32 1 2 C-0.07518118 4.44332726 -1.19808566 6.76754523 -2.4375 9.125 C-2.77587891 9.78371094 -3.11425781 10.44242187 -3.46289062 11.12109375 C-4.30149926 12.75106547 -5.14984811 14.37601909 -6 16 C-7.0255368 13.32738894 -7.08282493 12.2243612 -6.07421875 9.4921875 C-5.61660156 8.62851562 -5.15898437 7.76484375 -4.6875 6.875 C-4.23761719 6.00617188 -3.78773438 5.13734375 -3.32421875 4.2421875 C-2 2 -2 2 0 0 Z " fill="#122250" transform="translate(489,452)"/>
<path d="M0 0 C0.99 0 1.98 0 3 0 C2.814375 0.928125 2.62875 1.85625 2.4375 2.8125 C1.75876119 6.01343771 1.75876119 6.01343771 3 9 C3.99 9.33 4.98 9.66 6 10 C4.35 10 2.7 10 1 10 C-0.85064319 6.87703962 -1.29356154 4.62059232 -1 1 C-0.67 0.67 -0.34 0.34 0 0 Z " fill="#102257" transform="translate(279,720)"/>
<path d="M0 0 C0.33 0 0.66 0 1 0 C1.2784375 1.2375 1.2784375 1.2375 1.5625 2.5 C3.48868121 7.18983252 6.54042105 10.35541683 10 14 C9.67 14.66 9.34 15.32 9 16 C7.82737096 14.88121617 6.66204862 13.75476949 5.5 12.625 C4.52546875 11.68527344 4.52546875 11.68527344 3.53125 10.7265625 C2 9 2 9 2 7 C1.34 7 0.68 7 0 7 C0 4.69 0 2.38 0 0 Z " fill="#0E1547" transform="translate(619,413)"/>
<path d="M0 0 C5.02692063 0.45699278 8.14896261 2.99241748 12 6 C11.67 6.66 11.34 7.32 11 8 C9.35048774 7.04801289 7.70548492 6.08820855 6.0625 5.125 C5.14597656 4.59132813 4.22945312 4.05765625 3.28515625 3.5078125 C1 2 1 2 0 0 Z " fill="#112152" transform="translate(592,343)"/>
<path d="M0 0 C5.55216953 2.52371342 8.514344 7.20847864 12 12 C9 12 9 12 7.24609375 10.390625 C6.64925781 9.68421875 6.05242188 8.9778125 5.4375 8.25 C4.83808594 7.55390625 4.23867188 6.8578125 3.62109375 6.140625 C2.11754827 4.15522037 1.02421999 2.2624561 0 0 Z " fill="#239FA8" transform="translate(539,443)"/>
<path d="M0 0 C3.71279784 1.44386582 4.9486443 3.12236392 6.75 6.625 C7.17796875 7.44226563 7.6059375 8.25953125 8.046875 9.1015625 C8.51867187 10.04128906 8.51867187 10.04128906 9 11 C8.01 11.495 8.01 11.495 7 12 C5.82767315 10.3790787 4.6622923 8.75313167 3.5 7.125 C2.8503125 6.22007812 2.200625 5.31515625 1.53125 4.3828125 C0 2 0 2 0 0 Z " fill="#172A5A" transform="translate(607,389)"/>
<path d="M0 0 C0.66 0 1.32 0 2 0 C2 0.99 2 1.98 2 3 C2.60328125 3.19335938 3.2065625 3.38671875 3.828125 3.5859375 C5.02695312 3.97652344 5.02695312 3.97652344 6.25 4.375 C7.03890625 4.63023437 7.8278125 4.88546875 8.640625 5.1484375 C10.86627958 5.95173667 12.90931672 6.89711662 15 8 C9.93100521 8.37090206 6.44644479 7.47974806 2 5 C0.5625 2.3125 0.5625 2.3125 0 0 Z " fill="#2C8298" transform="translate(480,301)"/>
<path d="M0 0 C0.66 0 1.32 0 2 0 C5.42857143 8.42857143 5.42857143 8.42857143 5 13 C3 12 3 12 2.1484375 10.0390625 C1.89320313 9.24242187 1.63796875 8.44578125 1.375 7.625 C1.11460937 6.83351563 0.85421875 6.04203125 0.5859375 5.2265625 C0 3 0 3 0 0 Z " fill="#112355" transform="translate(534,708)"/>
<path d="M0 0 C0.79921875 0.11085938 1.5984375 0.22171875 2.421875 0.3359375 C3.32679688 0.47902344 3.32679688 0.47902344 4.25 0.625 C4.25 1.285 4.25 1.945 4.25 2.625 C2.6 2.955 0.95 3.285 -0.75 3.625 C-0.75 2.965 -0.75 2.305 -0.75 1.625 C-3.39 1.625 -6.03 1.625 -8.75 1.625 C-5.5750906 -0.2828584 -3.64414789 -0.5359041 0 0 Z " fill="#12265C" transform="translate(289.75,702.375)"/>
<path d="M0 0 C0 0.66 0 1.32 0 2 C-3.96 2 -7.92 2 -12 2 C-12 1.34 -12 0.68 -12 0 C-7.74433453 -1.16063604 -4.3164922 -0.76173392 0 0 Z " fill="#132356" transform="translate(406,694)"/>
<path d="M0 0 C-0.66 0.66 -1.32 1.32 -2 2 C-5.2578125 1.9765625 -5.2578125 1.9765625 -9.125 1.625 C-10.40632813 1.51414062 -11.68765625 1.40328125 -13.0078125 1.2890625 C-13.99523437 1.19367187 -14.98265625 1.09828125 -16 1 C-16 0.67 -16 0.34 -16 0 C-10.49983036 -1.30267176 -5.52967941 -0.71033431 0 0 Z " fill="#1B2D5E" transform="translate(424,649)"/>
<path d="M0 0 C0.93045933 2.55144824 1.08564091 3.74006478 0.22265625 6.359375 C-0.16019531 7.14828125 -0.54304688 7.9371875 -0.9375 8.75 C-1.50791016 9.94882812 -1.50791016 9.94882812 -2.08984375 11.171875 C-2.39019531 11.77515625 -2.69054687 12.3784375 -3 13 C-3.66 13 -4.32 13 -5 13 C-4.39254603 8.14036821 -2.27241033 4.2594482 0 0 Z " fill="#112455" transform="translate(493,460)"/>
<path d="M0 0 C0.99 0 1.98 0 3 0 C3.185625 0.9590625 3.185625 0.9590625 3.375 1.9375 C3.684375 2.9584375 3.684375 2.9584375 4 4 C4.66 4.33 5.32 4.66 6 5 C1.125 8 1.125 8 0 8 C0 5.36 0 2.72 0 0 Z " fill="#2CB0B8" transform="translate(491,360)"/>
<path d="M0 0 C0.66 0 1.32 0 2 0 C1 3 1 3 -1.1875 4.1875 C-4.25390311 5.07334979 -6.82438155 5.14770318 -10 5 C-10.33 4.34 -10.66 3.68 -11 3 C-10.37351562 2.95101562 -9.74703125 2.90203125 -9.1015625 2.8515625 C-8.28429687 2.77679687 -7.46703125 2.70203125 -6.625 2.625 C-5.81289063 2.55539062 -5.00078125 2.48578125 -4.1640625 2.4140625 C-1.79665809 2.17107412 -1.79665809 2.17107412 0 0 Z " fill="#23ABAD" transform="translate(673,724)"/>
<path d="M0 0 C1.94806149 2.92209224 3.45695045 5.84960716 5 9 C5.391875 9.78375 5.78375 10.5675 6.1875 11.375 C6.455625 11.91125 6.72375 12.4475 7 13 C5.1875 12.4375 5.1875 12.4375 3 11 C0.93061944 7.00905178 0 4.52370909 0 0 Z " fill="#1FAAAD" transform="translate(654,714)"/>
<path d="M0 0 C-3 2 -3 2 -5.125 2.4375 C-5.74375 2.623125 -6.3625 2.80875 -7 3 C-7.33 3.99 -7.66 4.98 -8 6 C-8.99 6.33 -9.98 6.66 -11 7 C-8.87296567 0.78251503 -6.45381515 -0.28683623 0 0 Z " fill="#102254" transform="translate(496,695)"/>
<path d="M0 0 C2.58148508 0.35606691 3.82045747 0.83328193 5.75 2.625 C7.43754802 5.83134123 7.20576047 8.43348514 7 12 C6.731875 11.443125 6.46375 10.88625 6.1875 10.3125 C4.34475342 6.72399349 2.23673964 3.35510946 0 0 Z " fill="#102153" transform="translate(299,698)"/>
<path d="M0 0 C0.66 0 1.32 0 2 0 C2 0.66 2 1.32 2 2 C2.66 2 3.32 2 4 2 C5.60725635 5.21451269 5.05748185 8.43612536 5 12 C3.20931427 9.3139714 2.33944209 7.3373411 1.375 4.3125 C1.11460937 3.50425781 0.85421875 2.69601562 0.5859375 1.86328125 C0.39257812 1.24839844 0.19921875 0.63351562 0 0 Z " fill="#101F51" transform="translate(373,703)"/>
<path d="M0 0 C2.31 0 4.62 0 7 0 C7.33 1.65 7.66 3.3 8 5 C5.03 4.01 2.06 3.02 -1 2 C-0.67 1.34 -0.34 0.68 0 0 Z " fill="#0C1D4D" transform="translate(352,694)"/>
<path d="M0 0 C1 3 1 3 0 6 C1.98 6.66 3.96 7.32 6 8 C3 9 3 9 0.3125 7.75 C-0.450625 7.1725 -1.21375 6.595 -2 6 C-2 3 -2 3 0 0 Z " fill="#209498" transform="translate(775,726)"/>
<path d="M0 0 C0.66 0 1.32 0 2 0 C2.99 2.97 3.98 5.94 5 9 C4.01 9.495 4.01 9.495 3 10 C3 9.01 3 8.02 3 7 C2.34 7 1.68 7 1 7 C1 5.68 1 4.36 1 3 C0.01 2.67 -0.98 2.34 -2 2 C-1.34 1.34 -0.68 0.68 0 0 Z " fill="#2BABAF" transform="translate(719,725)"/>
<path d="M0 0 C1.670625 0.061875 1.670625 0.061875 3.375 0.125 C4.8533226 3.08164519 4.43532783 5.86729737 4.375 9.125 C3.385 9.62 3.385 9.62 2.375 10.125 C2.375 7.485 2.375 4.845 2.375 2.125 C-0.265 2.125 -2.905 2.125 -5.625 2.125 C-3.625 0.125 -3.625 0.125 0 0 Z " fill="#0B1A47" transform="translate(323.625,693.875)"/>
<path d="M0 0 C7.625 0.875 7.625 0.875 11 2 C11 2.66 11 3.32 11 4 C6.44262737 3.56179109 3.42346555 3.14958831 0 0 Z " fill="#122255" transform="translate(576,337)"/>
<path d="M0 0 C3 3 6 6 9 9 C8.67 9.66 8.34 10.32 8 11 C2.19794344 5.35475578 2.19794344 5.35475578 0 2 C0 1.34 0 0.68 0 0 Z " fill="#229DA3" transform="translate(600,686)"/>
<path d="M0 0 C0 3.19610552 -0.54671542 4.41717626 -2 7.1875 C-2.37125 7.90292969 -2.7425 8.61835937 -3.125 9.35546875 C-3.41375 9.89816406 -3.7025 10.44085937 -4 11 C-4.33 11 -4.66 11 -5 11 C-5.36541918 6.73677629 -4.49759276 4.45820536 -2 1 C-1.34 0.67 -0.68 0.34 0 0 Z " fill="#0F1D4B" transform="translate(382,588)"/>
<path d="M0 0 C0.515625 0.2475 1.03125 0.495 1.5625 0.75 C-4.8375 4.81153846 -4.8375 4.81153846 -7.875 4.5 C-8.390625 4.2525 -8.90625 4.005 -9.4375 3.75 C-3.0375 -0.31153846 -3.0375 -0.31153846 0 0 Z " fill="#142558" transform="translate(278.4375,696.25)"/>
<path d="M0 0 C0.66 0 1.32 0 2 0 C3.32 2.31 4.64 4.62 6 7 C4.35 6.67 2.7 6.34 1 6 C0.67 4.02 0.34 2.04 0 0 Z " fill="#233F66" transform="translate(462,286)"/>
<path d="M0 0 C0 2.64 0 5.28 0 8 C-0.99 8 -1.98 8 -3 8 C-3 5.69 -3 3.38 -3 1 C-1 0 -1 0 0 0 Z " fill="#132659" transform="translate(297,720)"/>
<path d="M0 0 C0.6875 1.625 0.6875 1.625 1 4 C-0.4375 7.25 -0.4375 7.25 -2 10 C-2.33 10 -2.66 10 -3 10 C-3.36923077 4.58461538 -3.36923077 4.58461538 -1.5 1.625 C-1.005 1.08875 -0.51 0.5525 0 0 Z " fill="#26C4C7" transform="translate(779,699)"/>
<path d="M0 0 C2.97 0.495 2.97 0.495 6 1 C4.68 1.33 3.36 1.66 2 2 C2.33 3.65 2.66 5.3 3 7 C1.5 5.75 1.5 5.75 0 4 C0 2.68 0 1.36 0 0 Z " fill="#122450" transform="translate(519,694)"/>
<path d="M0 0 C0.33 0.99 0.66 1.98 1 3 C-0.8125 5.6875 -0.8125 5.6875 -3 8 C-3.66 8 -4.32 8 -5 8 C-3.62845496 5.04590299 -2.01136276 2.55991624 0 0 Z " fill="#122151" transform="translate(466,622)"/>
<path d="M0 0 C3.16115776 1.36983503 3.9927092 1.9890638 6 5 C5.67 5.99 5.34 6.98 5 8 C0 2.25 0 2.25 0 0 Z " fill="#12214F" transform="translate(614,360)"/>
<path d="M0 0 C2.15377564 2.62198774 3.40072174 4.64404172 4 8 C2.0625 7.1875 2.0625 7.1875 0 6 C-1 3 -1 3 0 0 Z " fill="#1F3D6E" transform="translate(503,433)"/>
<path d="M0 0 C0.66 0 1.32 0 2 0 C2 2.64 2 5.28 2 8 C1.01 7.67 0.02 7.34 -1 7 C-0.67 4.69 -0.34 2.38 0 0 Z " fill="#1D3B66" transform="translate(630,424)"/>
<path d="M0 0 C0.66 0.99 1.32 1.98 2 3 C1.01 2.67 0.02 2.34 -1 2 C-0.67 1.34 -0.34 0.68 0 0 Z " fill="#31BEC1" transform="translate(754,707)"/>
<path d="M0 0 C1 4 1 4 1 4 Z " fill="#35AFBB" transform="translate(528,312)"/>
<path d="M0 0 C3 1 3 1 3 1 Z " fill="#31B4BD" transform="translate(608,719)"/>
<path d="" fill="#2FBFC3" transform="translate(0,0)"/>
<path d="M0 0 C0.66 0.66 1.32 1.32 2 2 C1.34 2 0.68 2 0 2 C0 1.34 0 0.68 0 0 Z " fill="#213B73" transform="translate(449,706)"/>
<path d="" fill="#3688A2" transform="translate(0,0)"/>
<path d="M0 0 C3 1 3 1 3 1 Z " fill="#329EB0" transform="translate(485,569)"/>
<path d="M0 0 C0.66 0.66 1.32 1.32 2 2 C1.34 2 0.68 2 0 2 C0 1.34 0 0.68 0 0 Z " fill="#295082" transform="translate(467,494)"/>
<path d="M0 0 C3 1 3 1 3 1 Z " fill="#34A7B4" transform="translate(541,392)"/>
<path d="M0 0 C3 1 3 1 3 1 Z " fill="#35AAB6" transform="translate(533,392)"/>
<path d="M0 0 C3 1 3 1 3 1 Z " fill="#36ABB8" transform="translate(529,392)"/>
<path d="M0 0 C3 1 3 1 3 1 Z " fill="#32628F" transform="translate(561,373)"/>
<path d="" fill="#21386A" transform="translate(0,0)"/>
<path d="M0 0 C2 1 2 1 2 1 Z " fill="#30B9BD" transform="translate(753,725)"/>
<path d="M0 0 C2 1 2 1 2 1 Z " fill="#34B9BC" transform="translate(764,724)"/>
<path d="" fill="#31BBC1" transform="translate(0,0)"/>
<path d="" fill="#27447A" transform="translate(0,0)"/>
<path d="M0 0 C2 1 2 1 2 1 Z " fill="#39AEB4" transform="translate(634,681)"/>
<path d="" fill="#3687A2" transform="translate(0,0)"/>
<path d="" fill="#2F8AA7" transform="translate(0,0)"/>
<path d="" fill="#31BAC1" transform="translate(0,0)"/>
<path d="" fill="#37A9B5" transform="translate(0,0)"/>
<path d="M0 0 C2 1 2 1 2 1 Z " fill="#2DBCC6" transform="translate(577,487)"/>
<path d="" fill="#30B7C3" transform="translate(0,0)"/>
<path d="" fill="#32B6C1" transform="translate(0,0)"/>
<path d="" fill="#25457B" transform="translate(0,0)"/>
<path d="M0 0 C2 1 2 1 2 1 Z " fill="#2D5586" transform="translate(584,378)"/>
<path d="M0 0 C2 1 2 1 2 1 Z " fill="#339DB0" transform="translate(524,321)"/>
<path d="" fill="#213567" transform="translate(0,0)"/>
<path d="" fill="#39AAAD" transform="translate(0,0)"/>
<path d="" fill="#36B1B5" transform="translate(0,0)"/>
<path d="" fill="#34B0B6" transform="translate(0,0)"/>
<path d="" fill="#243869" transform="translate(0,0)"/>
<path d="" fill="#22376C" transform="translate(0,0)"/>
<path d="" fill="#38B1B6" transform="translate(0,0)"/>
<path d="" fill="#223669" transform="translate(0,0)"/>
<path d="" fill="#203567" transform="translate(0,0)"/>
<path d="" fill="#223563" transform="translate(0,0)"/>
<path d="" fill="#21376B" transform="translate(0,0)"/>
<path d="" fill="#35B6B9" transform="translate(0,0)"/>
<path d="" fill="#32B9BB" transform="translate(0,0)"/>
<path d="" fill="#2C4C7F" transform="translate(0,0)"/>
<path d="" fill="#1C366A" transform="translate(0,0)"/>
<path d="" fill="#21366C" transform="translate(0,0)"/>
<path d="" fill="#34B3B7" transform="translate(0,0)"/>
<path d="" fill="#21386B" transform="translate(0,0)"/>
<path d="" fill="#253F73" transform="translate(0,0)"/>
<path d="" fill="#21376C" transform="translate(0,0)"/>
<path d="" fill="#1E346A" transform="translate(0,0)"/>
<path d="" fill="#223A6F" transform="translate(0,0)"/>
<path d="" fill="#213770" transform="translate(0,0)"/>
<path d="" fill="#38A6AD" transform="translate(0,0)"/>
<path d="" fill="#33B6BA" transform="translate(0,0)"/>
<path d="" fill="#34ACB6" transform="translate(0,0)"/>
<path d="" fill="#21376D" transform="translate(0,0)"/>
<path d="" fill="#32B8BE" transform="translate(0,0)"/>
<path d="" fill="#30B9BD" transform="translate(0,0)"/>
<path d="" fill="#243E74" transform="translate(0,0)"/>
<path d="" fill="#37B7B9" transform="translate(0,0)"/>
<path d="" fill="#30C3C5" transform="translate(0,0)"/>
<path d="" fill="#20396E" transform="translate(0,0)"/>
<path d="" fill="#34B4B9" transform="translate(0,0)"/>
<path d="" fill="#31BBC2" transform="translate(0,0)"/>
<path d="" fill="#31B9BE" transform="translate(0,0)"/>
<path d="" fill="#33B7BC" transform="translate(0,0)"/>
<path d="" fill="#233C72" transform="translate(0,0)"/>
<path d="" fill="#223D74" transform="translate(0,0)"/>
<path d="" fill="#203A71" transform="translate(0,0)"/>
<path d="" fill="#36B9BF" transform="translate(0,0)"/>
<path d="" fill="#203B73" transform="translate(0,0)"/>
<path d="" fill="#233D75" transform="translate(0,0)"/>
<path d="" fill="#32BDC5" transform="translate(0,0)"/>
<path d="" fill="#34B4BE" transform="translate(0,0)"/>
<path d="" fill="#274276" transform="translate(0,0)"/>
<path d="" fill="#33B5BB" transform="translate(0,0)"/>
<path d="" fill="#223C73" transform="translate(0,0)"/>
<path d="" fill="#31BFC3" transform="translate(0,0)"/>
<path d="" fill="#31BEC2" transform="translate(0,0)"/>
<path d="" fill="#1D366D" transform="translate(0,0)"/>
<path d="" fill="#203971" transform="translate(0,0)"/>
<path d="" fill="#203570" transform="translate(0,0)"/>
<path d="" fill="#29457A" transform="translate(0,0)"/>
<path d="" fill="#37ADAF" transform="translate(0,0)"/>
<path d="" fill="#1C346E" transform="translate(0,0)"/>
<path d="" fill="#1E3971" transform="translate(0,0)"/>
<path d="" fill="#30BEC3" transform="translate(0,0)"/>
<path d="" fill="#223C75" transform="translate(0,0)"/>
<path d="" fill="#223A75" transform="translate(0,0)"/>
<path d="" fill="#1E376C" transform="translate(0,0)"/>
<path d="" fill="#20386F" transform="translate(0,0)"/>
<path d="" fill="#31BDC2" transform="translate(0,0)"/>
<path d="" fill="#31B7C1" transform="translate(0,0)"/>
<path d="" fill="#32BCC0" transform="translate(0,0)"/>
<path d="" fill="#30BEC2" transform="translate(0,0)"/>
<path d="" fill="#27467C" transform="translate(0,0)"/>
<path d="" fill="#243F76" transform="translate(0,0)"/>
<path d="" fill="#1D356D" transform="translate(0,0)"/>
<path d="" fill="#1F3870" transform="translate(0,0)"/>
<path d="" fill="#1F3871" transform="translate(0,0)"/>
<path d="" fill="#223C72" transform="translate(0,0)"/>
<path d="" fill="#233C72" transform="translate(0,0)"/>
<path d="" fill="#2EBDC1" transform="translate(0,0)"/>
<path d="" fill="#31BBC0" transform="translate(0,0)"/>
<path d="" fill="#203C74" transform="translate(0,0)"/>
<path d="" fill="#33BFC2" transform="translate(0,0)"/>
<path d="" fill="#31BCC2" transform="translate(0,0)"/>
<path d="" fill="#35BBBF" transform="translate(0,0)"/>
<path d="" fill="#35BFC4" transform="translate(0,0)"/>
<path d="" fill="#20396E" transform="translate(0,0)"/>
<path d="" fill="#28417A" transform="translate(0,0)"/>
<path d="" fill="#36B4B9" transform="translate(0,0)"/>
<path d="" fill="#30B9BE" transform="translate(0,0)"/>
<path d="" fill="#213C73" transform="translate(0,0)"/>
<path d="" fill="#1E356F" transform="translate(0,0)"/>
<path d="" fill="#253D75" transform="translate(0,0)"/>
<path d="" fill="#28457D" transform="translate(0,0)"/>
<path d="" fill="#32B7BE" transform="translate(0,0)"/>
<path d="" fill="#254177" transform="translate(0,0)"/>
<path d="" fill="#223A70" transform="translate(0,0)"/>
<path d="" fill="#33BDC0" transform="translate(0,0)"/>
<path d="" fill="#37B2B8" transform="translate(0,0)"/>
<path d="" fill="#35ACB2" transform="translate(0,0)"/>
<path d="" fill="#37ABB3" transform="translate(0,0)"/>
<path d="" fill="#21386C" transform="translate(0,0)"/>
<path d="" fill="#39ABB6" transform="translate(0,0)"/>
<path d="" fill="#243A6F" transform="translate(0,0)"/>
<path d="" fill="#253B6E" transform="translate(0,0)"/>
<path d="" fill="#274176" transform="translate(0,0)"/>
<path d="" fill="#254075" transform="translate(0,0)"/>
<path d="" fill="#253F78" transform="translate(0,0)"/>
<path d="" fill="#233F75" transform="translate(0,0)"/>
<path d="" fill="#274078" transform="translate(0,0)"/>
<path d="" fill="#233C73" transform="translate(0,0)"/>
<path d="" fill="#223C6F" transform="translate(0,0)"/>
<path d="" fill="#244073" transform="translate(0,0)"/>
<path d="" fill="#35809E" transform="translate(0,0)"/>
<path d="" fill="#25467B" transform="translate(0,0)"/>
<path d="" fill="#284D80" transform="translate(0,0)"/>
<path d="" fill="#294D84" transform="translate(0,0)"/>
<path d="" fill="#33B6BD" transform="translate(0,0)"/>
<path d="" fill="#33B6BE" transform="translate(0,0)"/>
<path d="" fill="#34B4BD" transform="translate(0,0)"/>
<path d="" fill="#34B7BF" transform="translate(0,0)"/>
<path d="" fill="#32B6BF" transform="translate(0,0)"/>
<path d="" fill="#3CA3B4" transform="translate(0,0)"/>
<path d="" fill="#37B1BC" transform="translate(0,0)"/>
<path d="" fill="#37AFBD" transform="translate(0,0)"/>
<path d="" fill="#39A0B1" transform="translate(0,0)"/>
<path d="" fill="#34B0BA" transform="translate(0,0)"/>
<path d="" fill="#32BAC1" transform="translate(0,0)"/>
<path d="" fill="#37AFBD" transform="translate(0,0)"/>
<path d="" fill="#37AAB5" transform="translate(0,0)"/>
<path d="" fill="#35A7B3" transform="translate(0,0)"/>
<path d="" fill="#31BDC3" transform="translate(0,0)"/>
<path d="" fill="#3AAAB6" transform="translate(0,0)"/>
<path d="" fill="#35BBC3" transform="translate(0,0)"/>
<path d="" fill="#379FB1" transform="translate(0,0)"/>
<path d="" fill="#327197" transform="translate(0,0)"/>
<path d="" fill="#3799B1" transform="translate(0,0)"/>
<path d="" fill="#327397" transform="translate(0,0)"/>
<path d="" fill="#38A9B4" transform="translate(0,0)"/>
<path d="" fill="#38AAB6" transform="translate(0,0)"/>
<path d="" fill="#2A5083" transform="translate(0,0)"/>
<path d="" fill="#34A6B5" transform="translate(0,0)"/>
<path d="" fill="#30BDC4" transform="translate(0,0)"/>
<path d="" fill="#36A5B7" transform="translate(0,0)"/>
<path d="" fill="#2FBCC4" transform="translate(0,0)"/>
<path d="" fill="#36A4B7" transform="translate(0,0)"/>
<path d="" fill="#254579" transform="translate(0,0)"/>
<path d="" fill="#2A497D" transform="translate(0,0)"/>
<path d="" fill="#38ABB8" transform="translate(0,0)"/>
<path d="" fill="#30BCC4" transform="translate(0,0)"/>
<path d="" fill="#30719C" transform="translate(0,0)"/>
<path d="" fill="#213D74" transform="translate(0,0)"/>
<path d="" fill="#2EBDC4" transform="translate(0,0)"/>
<path d="" fill="#2EBCC4" transform="translate(0,0)"/>
<path d="" fill="#2F7299" transform="translate(0,0)"/>
<path d="" fill="#37759B" transform="translate(0,0)"/>
<path d="" fill="#31BDC4" transform="translate(0,0)"/>
<path d="" fill="#327398" transform="translate(0,0)"/>
<path d="" fill="#33799E" transform="translate(0,0)"/>
<path d="" fill="#274A7E" transform="translate(0,0)"/>
<path d="" fill="#31B9C2" transform="translate(0,0)"/>
<path d="" fill="#2DBDC6" transform="translate(0,0)"/>
<path d="" fill="#359FB4" transform="translate(0,0)"/>
<path d="" fill="#36A0B3" transform="translate(0,0)"/>
<path d="" fill="#27477F" transform="translate(0,0)"/>
<path d="" fill="#369EB2" transform="translate(0,0)"/>
<path d="" fill="#35759A" transform="translate(0,0)"/>
<path d="" fill="#38B0B9" transform="translate(0,0)"/>
<path d="" fill="#32BAC3" transform="translate(0,0)"/>
<path d="" fill="#33BDC3" transform="translate(0,0)"/>
<path d="" fill="#33BAC2" transform="translate(0,0)"/>
<path d="" fill="#33BCC3" transform="translate(0,0)"/>
<path d="" fill="#27437B" transform="translate(0,0)"/>
<path d="" fill="#37A9B8" transform="translate(0,0)"/>
<path d="" fill="#2FBDC0" transform="translate(0,0)"/>
<path d="" fill="#35A4B7" transform="translate(0,0)"/>
<path d="" fill="#2D4F84" transform="translate(0,0)"/>
<path d="" fill="#31BCC4" transform="translate(0,0)"/>
<path d="" fill="#2A4F7F" transform="translate(0,0)"/>
<path d="" fill="#31BAC1" transform="translate(0,0)"/>
<path d="" fill="#285082" transform="translate(0,0)"/>
<path d="" fill="#2A5283" transform="translate(0,0)"/>
<path d="" fill="#38ADB9" transform="translate(0,0)"/>
<path d="" fill="#2B5281" transform="translate(0,0)"/>
<path d="" fill="#35B2BD" transform="translate(0,0)"/>
<path d="" fill="#2F5486" transform="translate(0,0)"/>
<path d="" fill="#319BB0" transform="translate(0,0)"/>
<path d="" fill="#2C5983" transform="translate(0,0)"/>
<path d="" fill="#30B5BE" transform="translate(0,0)"/>
<path d="" fill="#3483A2" transform="translate(0,0)"/>
<path d="" fill="#307299" transform="translate(0,0)"/>
<path d="" fill="#357C9E" transform="translate(0,0)"/>
<path d="" fill="#3691AB" transform="translate(0,0)"/>
<path d="" fill="#377DA0" transform="translate(0,0)"/>
<path d="" fill="#37A6B6" transform="translate(0,0)"/>
<path d="" fill="#36A4B4" transform="translate(0,0)"/>
<path d="" fill="#37A4B6" transform="translate(0,0)"/>
<path d="" fill="#2B5487" transform="translate(0,0)"/>
<path d="" fill="#37A3B5" transform="translate(0,0)"/>
<path d="" fill="#3AAFBA" transform="translate(0,0)"/>
<path d="" fill="#2B5283" transform="translate(0,0)"/>
<path d="" fill="#2D568A" transform="translate(0,0)"/>
<path d="" fill="#2A5080" transform="translate(0,0)"/>
<path d="" fill="#2C497B" transform="translate(0,0)"/>
<path d="" fill="#2D5587" transform="translate(0,0)"/>
<path d="" fill="#2B5386" transform="translate(0,0)"/>
<path d="" fill="#274C83" transform="translate(0,0)"/>
<path d="" fill="#3883A1" transform="translate(0,0)"/>
<path d="" fill="#2C5485" transform="translate(0,0)"/>
<path d="" fill="#2D5787" transform="translate(0,0)"/>
<path d="" fill="#33AEBC" transform="translate(0,0)"/>
<path d="" fill="#3588A1" transform="translate(0,0)"/>
<path d="" fill="#2E598D" transform="translate(0,0)"/>
<path d="" fill="#315B8D" transform="translate(0,0)"/>
<path d="" fill="#30628F" transform="translate(0,0)"/>
<path d="" fill="#37A2B2" transform="translate(0,0)"/>
<path d="" fill="#274571" transform="translate(0,0)"/>
<path d="" fill="#2D628C" transform="translate(0,0)"/>
<path d="" fill="#2E5785" transform="translate(0,0)"/>
<path d="" fill="#284474" transform="translate(0,0)"/>
<path d="" fill="#274276" transform="translate(0,0)"/>
<path d="" fill="#306792" transform="translate(0,0)"/>
<path d="" fill="#3796AC" transform="translate(0,0)"/>
<path d="" fill="#347A95" transform="translate(0,0)"/>
<path d="" fill="#3B6E88" transform="translate(0,0)"/>
<path d="" fill="#2DBEC7" transform="translate(0,0)"/>
<path d="" fill="#37B8C1" transform="translate(0,0)"/>
<path d="" fill="#36A9B2" transform="translate(0,0)"/>
</svg>
